<svg xmlns="http://www.w3.org/2000/svg" width="164.3" height="187.46" viewBox="0 0 164.3 187.46"><defs><style>.a{fill:#7dcc7a;}.a,.b{opacity:0.5;}.b,.d{fill:#4d9aff;}.c{fill:#b2d4ff;}.e,.g,.h,.l{fill:none;}.e{stroke:#000;stroke-width:2.06px;opacity:0.1;}.e,.h{stroke-miterlimit:10;}.f{fill:#ecf3ff;}.g{stroke:#b2d4ff;}.g,.l{stroke-linecap:round;stroke-linejoin:round;}.h{stroke:#fff;}.i{fill:#ff8880;}.j{fill:#fff;}.k{fill:#f08020;}.l{stroke:#314351;}.m{fill:#314351;}</style></defs><g transform="translate(-25.38 -1.24)"><circle class="a" cx="80.02" cy="80.02" r="80.02" transform="translate(29.64 28.66)"/><path class="b" d="M97.54,17.12V27.87s13.77-1.44,18.1.08c.09-7.6,0-10.83,0-10.83Z"/><path class="c" d="M95.89,17.09V27.66s13.77-1.41,18.1.09c.09-7.49,0-10.66,0-10.66Z"/><rect class="d" width="56.11" height="15.89" rx="4" transform="translate(77.21 1.24)"/><path class="a" d="M155.29,44.26l4.16-4.92a3,3,0,0,1,4.41-.18l8.65,8.67a3,3,0,0,1,.11,4.13l-4,4.45"/><path class="c" d="M43.32,55.83l-4.8-4.3a3,3,0,0,1-.05-4.42l8.92-8.4a3,3,0,0,1,4.12,0l5,4.91"/><path class="c" d="M154.77,43l4.16-4.92a3,3,0,0,1,4.41-.18L172,46.6a3,3,0,0,1,.11,4.13l-4,4.46"/><circle class="d" cx="80.02" cy="80.02" r="80.02" transform="translate(25.63 26.12)"/><circle class="e" cx="79.24" cy="79.24" r="79.24" transform="translate(26.41 26.89)"/><circle class="f" cx="69.68" cy="69.68" r="69.68" transform="translate(35.97 36.46)"/><line class="g" x2="0.13" y2="9.35" transform="translate(105.3 36.9)"/><line class="g" x2="0.13" y2="9.35" transform="translate(105.3 167.05)"/><line class="g" x1="9.35" y2="0.13" transform="translate(166.17 106.07)"/><line class="g" x1="9.35" y2="0.13" transform="translate(36.01 106.07)"/><line class="g" x1="6.19" y2="7.01" transform="translate(145.44 53.68)"/><line class="g" x1="6.19" y2="7.02" transform="translate(57.99 150.07)"/><line class="g" x1="6.83" y1="6.39" transform="translate(147.98 150.09)"/><line class="g" x1="6.83" y1="6.39" transform="translate(54.17 59.87)"/><circle class="h" cx="50.51" cy="50.51" r="50.51" transform="translate(55.14 55.63)"/><circle class="i" cx="35.85" cy="35.85" r="35.85" transform="translate(69.8 70.29)"/><circle class="j" cx="23.21" cy="23.21" r="23.21" transform="translate(82.44 82.93)"/><circle class="i" cx="10.08" cy="10.08" r="10.08" transform="translate(95.57 96.06)"/><path class="k" d="M146,77.58l2.61-16.38,21.46-15.17-3.46,15.9,16.56,3.27L161.1,80.87Z"/><line class="l" y1="35.09" x2="48.94" transform="translate(108.54 69.17)"/><path class="m" d="M119.52,104.69l-14,2.46a.65.65,0,0,1-.67-1l7.84-13-.26,8.35Z"/></g></svg>