<svg xmlns="http://www.w3.org/2000/svg" width="141.37" height="190.85" viewBox="0 0 141.37 190.85"><defs><style>.a{fill:#e085d3;opacity:0.5;}.b{fill:#faf1e1;}.c{fill:#fff;}.d{fill:#dcf5de;}.e{fill:#efc1ea;}.f{fill:#db80ce;}.g{fill:#314351;}.h{fill:#ff8080;}.i{fill:#fda;}.j{fill:#8e8eed;}.k{opacity:0.1;}.l,.q,.t{fill:none;}.l{stroke:#8e8eed;strokeWidth:2px;}.l,.q{stroke-miterlimit:10;}.m{fill:#ffc74f;}.n{fill:#cc8672;}.o{fill:#f58220;}.p{fill:#ffb6b2;}.q{stroke:#314351;}.r{fill:#4d9aff;}.s{fill:#7dcc7a;}.t{stroke:#fff;stroke-linecap:round;stroke-linejoin:round;strokeWidth:2.29px;}</style></defs><g transform="translate(-31.23 -0.39)"><path class="a" d="M52.45,7.53H159.5v94.25l-18,42.31v44.15a3,3,0,0,1-3,3H37.5a3,3,0,0,1-3-3V144.09l18.06-42.31Z"/><path class="b" d="M52.19,5H156.24V52.18H49.19V8a3,3,0,0,1,3-3Z"/><path class="c" d="M31.23,141.56H138.28v44.17a3,3,0,0,1-3,3H34.23a3,3,0,0,1-3-3Z"/><rect class="c" width="107.05" height="47.17" transform="translate(49.19 52.25)"/><path class="d" d="M138.28,141.57H31.23L49.29,99.26H156.35Z"/><path class="e" d="M103.78,134.5l6-11.24-33.4-19a6.63,6.63,0,0,0-9,2.44h0a6.64,6.64,0,0,0,2.54,9.13Z"/><path class="f" d="M66.74,111.94a6.63,6.63,0,0,0,3.13,3.87l.64.35a.67.67,0,0,1,.7,0L104.06,134l.73-1.38Z"/><path class="f" d="M66.55,108.89a7.191,7.191,0,0,0-.1,1.13l39.07,21.2.49-.92Z"/><path class="f" d="M67.71,106.1c-.13.19-.26.38-.38.58a7.21,7.21,0,0,0-.33.69l39.73,21.56.69-1.29Z"/><path class="f" d="M70,104.15a6.59,6.59,0,0,0-1.19.78l39.34,21.34.58-1.1Z"/><path class="f" d="M109.46,123.8l.29-.54-33.4-19a6.55,6.55,0,0,0-4.34-.76Z"/><path class="g" d="M67.33,106.68h0a6.64,6.64,0,0,0,2.54,9.13l5.5,3a129.431,129.431,0,0,1,6.22-11.62l-5.24-3a6.63,6.63,0,0,0-9.02,2.49Z"/><path class="h" d="M72.93,116.73c2-3.73,3.84-7.48,6-11l-2.56-1.45a6.63,6.63,0,0,0-9,2.44h0a6.64,6.64,0,0,0,2.54,9.13l2.79,1.53A4.06,4.06,0,0,1,72.93,116.73Z"/><path class="i" d="M103.78,134.5l11.39-1.43-5.42-9.81Z"/><path class="g" d="M111.59,128.53c-1.07,1.73-2.07,3.58-3.11,5.38l6.69-.84-3-5.48C112,127.91,111.78,128.22,111.59,128.53Z"/><rect class="j" width="5.03" height="27.49" rx="0.76" transform="translate(113.73 60.87)"/><path class="k" d="M118,60.87h-.75v27.5H118a.76.76,0,0,0,.76-.76v-26a.76.76,0,0,0-.76-.74Z"/><rect class="j" width="4.45" height="21.01" rx="0.76" transform="translate(119.18 64.12)"/><path class="k" d="M122.91,64.12v21a.76.76,0,0,0,.72-.75V64.87A.76.76,0,0,0,122.91,64.12Z"/><rect class="j" width="3.39" height="15.37" rx="0.76" transform="translate(124.11 66.93)"/><path class="k" d="M126.74,66.93h-.44V82.31h.44a.76.76,0,0,0,.76-.76V67.69a.76.76,0,0,0-.76-.76Z"/><rect class="j" width="5.03" height="27.49" rx="0.76" transform="translate(94.08 88.37) rotate(180)"/><rect class="j" width="4.45" height="21.01" rx="0.76" transform="translate(88.63 85.12) rotate(180)"/><rect class="j" width="3.39" height="15.37" rx="0.76" transform="translate(83.7 82.31) rotate(180)"/><line class="l" x2="24.1" transform="translate(92.85 74.56)"/><path class="m" d="M82.66,39.24l28.06,6a2.08,2.08,0,0,0,2.46-2.47L107,14.57A22.37,22.37,0,0,0,84.27,27.9C82.45,31.75,81.67,35.68,82.66,39.24Z"/><path class="k" d="M109.46,31.63c1.25,4.32,2.25,8.65,3.14,13a2.07,2.07,0,0,0,.58-1.92L107,14.57a16.56,16.56,0,0,0-2.45-.09C106,20.28,107.71,25.61,109.46,31.63Z"/><path class="n" d="M77.73,38.13l5,1.17a22,22,0,0,1,6.68-18.46c4.94-4.94,14.61-6.53,17.56-6.21a34.381,34.381,0,0,0-1.08-5.36s-12-.64-20.7,7.46C80.92,21.11,77,31.75,77.73,38.13Z"/><path class="k" d="M105.92,9.27a20.56,20.56,0,0,0-2.6.06c.49,2.17.84,3.55,1.31,5.34a9.47,9.47,0,0,1,2.37,0,34.38,34.38,0,0,0-1.08-5.4Z"/><circle class="o" cx="3.6" cy="3.6" r="3.6" transform="translate(90.03 21.86)"/><circle class="o" cx="2.34" cy="2.34" r="2.34" transform="translate(103.81 20.38)"/><circle class="o" cx="3.46" cy="3.46" r="3.46" transform="translate(100.91 32.61)"/><circle class="o" cx="1.44" cy="1.44" r="1.44" transform="translate(91.59 36.97)"/><path class="p" d="M99.39,154.94l-16.81-7.51v14.69Z"/><path class="k" d="M94.16,156.11c-3.91,1.31-7.68,3.27-11.58,4.66v1.35l16.81-7.18-.79-.35Z"/><line class="q" y2="30.21" transform="translate(82.11 145.82)"/><path class="r" d="M102.46,183.35H63.37a1,1,0,0,1-.93-.63l-6-15a1,1,0,0,1,.93-1.37h51a1,1,0,0,1,.93,1.37l-6,15A1,1,0,0,1,102.46,183.35Z"/><path class="k" d="M108.42,166.36H106a5,5,0,0,1-.16.51,33.14,33.14,0,0,1-15.37,16.48h12a1,1,0,0,0,.93-.63l6-15a1,1,0,0,0-.98-1.36Z"/><circle class="s" cx="14.78" cy="14.78" r="14.78" transform="translate(143.04 0.39)"/><path class="t" d="M150.29,17.25l3.37,4.02,12.86-10.42"/><circle class="s" cx="14.78" cy="14.78" r="14.78" transform="translate(141.66 46.32)"/><path class="t" d="M148.91,63.19l3.37,4.02,12.86-10.42"/></g></svg>