<?xml version="1.0" encoding="utf-8"?>
<!-- Generator: Adobe Illustrator 25.2.3, SVG Export Plug-In . SVG Version: 6.00 Build 0)  -->
<svg version="1.1" id="Layer_1" xmlns="http://www.w3.org/2000/svg" xmlns:xlink="http://www.w3.org/1999/xlink" x="0px" y="0px"
	 width="400px" height="200px" viewBox="0 0 400 200" style="enable-background:new 0 0 400 200;" xml:space="preserve">
<style type="text/css">
	.st0{fill:#FF727F;}
	.st1{fill:#18437E;}
	.st2{fill:none;stroke:#41454C;stroke-width:0.5;stroke-miterlimit:10;}
	.st3{fill:#E7EBEC;}
	.st4{fill:#FF7381;}
	.st5{fill:#FFE200;}
	.st6{fill:#0073DE;}
	.st7{fill:#FFC7DB;}
	.st8{fill:#0070E1;}
	.st9{fill:#202020;}
	.st10{fill:#00CAFF;}
	.st11{fill:#FFE01B;}
	.st12{fill:#FFC5DA;}
	.st13{fill:#FFFFFF;}
	.st14{fill:none;stroke:#41454C;stroke-linecap:round;stroke-miterlimit:10;}
	.st15{fill:#EDF1F2;}
	.st16{fill:#2E3C54;}
</style>
<g id="Layer_2_1_">
	<path class="st0" d="M197.4,78.7L198,77c0,0,3.5-2.8,2.8-5.1c-0.6-2-4.3-1.4-4.6,2.3c-0.1,0.7-0.2,1.4-0.3,2.1l-0.9,1.5L197.4,78.7
		z"/>
	<path class="st1" d="M204.4,70l-0.7-1.9c0,0,0.9-4.7-1.4-6.2c-1.9-1.3-4.6,1.9-2.1,5.2c0.5,0.6,0.9,1.3,1.2,2l0.3,1.8L204.4,70z"/>
	<polyline class="st2" points="129.7,174.8 129.7,149.5 178,149.5 178,174.8 	"/>
	<polyline class="st2" points="178,174.8 178,132.4 226.3,132.4 226.3,174.8 	"/>
	<polyline class="st2" points="226.3,174.8 226.3,143.6 274.7,143.6 274.7,174.8 	"/>
	<ellipse class="st3" cx="110.1" cy="174.6" rx="13.4" ry="1.3"/>
	<path class="st4" d="M113.5,83.2c0,0,3.7,7.1,2.9,10.8s-7.6,2.8-7.6,2.8l2.2,4.7c0,0-7.4,0.4-7.2,0.2s0-7,0-6.5c0,0-2-6.2-1.9-6.8
		s3.8-6.3,3.8-6.3L113.5,83.2z"/>
	<path class="st1" d="M104,101.1c0,0,3.8,1.2,6.7-0.2c0,0,12.4,5.1,12.8,18.1c0.2,6.5-7.9,15.9-7.9,15.9l-0.6-4
		c0,0,4.1-8.8,4.2-11.9c0.1-4-6.4-6.6-6.4-6.6l1.9,16.3H99.4l3-16.8c0,0-11.3,3.5-13.4,0.3s-1.2-14.6-1.2-14.6l2.3-0.5
		c0,0,1.3,10.3,4.5,10.5C98.7,107.8,104,101.1,104,101.1z"/>
	<path class="st5" d="M119.2,172.3c1-25.5-4.4-43.5-4.4-43.5H99.4c-0.8,14.7-0.3,29.4,1.6,44h2.4c0,0,3.1-37,4.8-36.8
		s8.7,36.4,8.7,36.4L119.2,172.3z"/>
	<path class="st6" d="M101.4,172.7c-1.6-0.1-3.2,0.6-4.2,1.8h6.1l0.1-1.8L101.4,172.7z"/>
	<path class="st6" d="M118.8,172.3c1.6-0.1,3.2,0.5,4.3,1.7l-6.1,0.2l-0.1-1.8L118.8,172.3z"/>
	<path class="st7" d="M110.7,100.9c0,0-2.2,16.8-2.7,16.6s-4-16.4-4-16.4C106.2,101.6,108.5,101.5,110.7,100.9z"/>
	<path class="st4" d="M89.9,95.5c0,0,1.4-4.4,0.4-4.6s-1.2,1.9-1.2,1.9s-2.9-3.3-4.6-2.3s3.3,5.5,3.3,5.5l-0.1,1.6l2.3-0.5
		L89.9,95.5z"/>
	<path class="st8" d="M118,84c0,0.6-8.8,2.4-12.8,1.3c0.5,1.3,2.2,4,1.2,5c-1.6,1.6-3.1-3.6-3.9-2c-0.3,0.7,1.6,6.9,1.6,6.9
		c-3.2-0.1-5.5-9.8-5.4-12.2c0.1-1.5,2.8-2.9,7.3-3.8c5.6-1.1,6.6-0.3,7.9,0.5C115.5,80.9,116.9,82.3,118,84z"/>
	<path class="st9" d="M108.8,97c-0.5,0.1-0.9-0.3-1-0.8c0,0,0.1-0.2,0.2-0.2c0.4,0.1,0.8,0.3,1,0.7C109,96.9,108.9,96.9,108.8,97z"
		/>
	<path class="st9" d="M102.6,110.3c0.2,0.5,0.2,1.1,0,1.7c-0.1,0-0.1,0-0.2,0c-0.3-0.5-0.3-1.2,0-1.7
		C102.4,110.2,102.5,110.2,102.6,110.3z"/>
	<path class="st9" d="M112.7,113.2c-0.4-0.6-0.4-1.4-0.1-2.1c0,0,0.2,0,0.2,0c0.2,0.6,0.2,1.3,0.1,2
		C112.9,113.1,112.7,113.2,112.7,113.2z"/>
	<path class="st9" d="M99.4,135c1.1-1.7,2.4-3.2,2.8-5.2c0-0.1,0.2-0.1,0.2,0c0,1.1-0.3,2.1-0.8,3c-0.5,0.9-1.2,1.7-2,2.3
		C99.5,135.2,99.3,135,99.4,135z"/>
	<path class="st9" d="M114.8,134.5c-0.9-0.4-1.6-1.1-2-2c-0.4-0.9-0.6-1.8-0.7-2.7c0-0.1,0.2-0.1,0.2-0.1c0.3,0.9,0.7,1.7,1,2.5
		c0.3,0.8,0.8,1.5,1.5,2.1C115,134.3,114.9,134.5,114.8,134.5z"/>
	<path class="st9" d="M100,173.5c0.1-0.3,0.2-0.5,0.3-0.8c0.1-0.2,0.1-0.4,0.1-0.7l0,0l0,0l0,0l0,0c0,0,0.1,0.1,0,0.1
		c0,0,0,0.1,0,0.1c0,0.2-0.1,0.5-0.1,0.7l-0.1,0.8l-0.5-0.6l-0.2-0.2l-0.1-0.1 M99.4,172.8c0,0.4,0.3,0.6,0.7,0.7
		c0.1,0,0.1,0.2,0,0.2c-0.6,0-1.1-0.4-1.1-1c0,0,0,0,0,0c0-0.2,0-0.4,0.2-0.5c0.2-0.1,0.4-0.1,0.5,0c0.3,0.1,0.5,0.3,0.6,0.6
		l-0.5,0.2c0-0.3,0-0.7,0.1-1c0-0.3,0.2-0.5,0.5-0.5c0.3,0,0.6,0.1,0.6,0.4c0.1,0.3,0,0.7-0.2,1c-0.1,0.3-0.3,0.5-0.5,0.7
		c-0.1,0-0.2-0.1-0.2-0.1L99.4,172.8z"/>
	<path class="st9" d="M119.9,172.8l0.3-0.8c0.1-0.2,0.2-0.5,0.2-0.6s0,0,0.1,0s0.1-0.1,0.1,0s0,0.2,0,0.2l0,0
		c-0.1,0.1-0.1,0.1-0.2,0.2c-0.1,0.2-0.2,0.4-0.3,0.7l-0.4,0.9l-0.2-0.9c0-0.1,0-0.2-0.1-0.3c0,0,0,0-0.1,0c0,0,0,0,0,0
		c0,0,0,0,0,0.1c0,0.1,0,0.1,0.1,0.2c0.1,0.1,0.2,0.3,0.3,0.4c0,0.1-0.1,0.2-0.1,0.2c-0.2-0.1-0.3-0.2-0.5-0.4
		c-0.1-0.1-0.1-0.2-0.2-0.3c0-0.1,0-0.3,0-0.4c0.1-0.3,0.4-0.4,0.7-0.3c0,0,0.1,0,0.1,0c0.1,0.1,0.2,0.2,0.3,0.3
		c0,0.1,0.1,0.2,0.1,0.3h-0.6c0.1-0.3,0.2-0.6,0.4-0.8c0.1-0.1,0.2-0.3,0.4-0.3c0.1-0.1,0.2-0.1,0.4-0.1c0.3,0,0.4,0.4,0.4,0.4
		c0,0.3-0.2,0.6-0.4,0.9c-0.2,0.2-0.3,0.5-0.5,0.7S119.9,172.9,119.9,172.8z"/>
	<path class="st1" d="M162.5,81.6l-1.2-0.1c-5.1-0.4-8.9-4.9-8.5-10c0-0.2,0-0.5,0.1-0.7c0.6-3.2,2.9-5.9,7.1-6.9
		c7.3-1.8,16.6,2.2,15,8.5S169,83.1,162.5,81.6"/>
	<path class="st0" d="M160.4,76.8c-0.6-0.8-1.9-1.8-2.4-0.6c-0.7,1.8,2.6,2.9,2.6,2.9c0.2,2.7,0,5.5-0.6,8.2
		c-0.1,0.2,6.2,0.2,6.2,0.2l-0.8-5.5c0,0,6.5,1.1,7.6-2.5c0.8-2.6-1.8-8.1-1.8-8.1c-0.6,0.7-1.5,1.2-2.4,1.4
		c-1.4,0.2-3.4-1.1-3.4-1.1s0.1,1.8-0.8,2.2c-0.8,0.3-1.7,0.3-2.4,0c0,0,1.9,4.7,0.4,7.7C162.5,81.6,161.6,78.1,160.4,76.8z"/>
	<path class="st1" d="M141.9,136.6c3.1,0,10,0.5,16-3.9c6.8-5,6.9-16.5,6.9-16.5s7,7.6-0.6,31l2.7,0.3c12.1-19.4,8-29.8,4.1-38.6
		l-15.3-0.2c-1,9.2,0.6,12.9-2.1,18.1c-2.8,5.4-10.4,6.6-11.9,6.8L141.9,136.6z"/>
	<path class="st10" d="M142.4,135.8c0.3,1.8-0.2,3.6-1.4,5l-1-7l2.1-0.3L142.4,135.8z"/>
	<path class="st10" d="M167,147.2c0,0,3-0.4,4,2h-7.1l0.3-2H167z"/>
	<path class="st9" d="M157,94.9c-0.2,2.3-0.3,4.6-0.5,7s-0.4,4.5-0.5,6.8l6.5,0.1c-0.9-2.2-1.8-4.5-2.7-6.8L157,94.9
		c-0.1-0.4,0-0.4,0.2,0l5.8,14.2l-7.5-0.1l0.6-7.2c0.2-2.3,0.4-4.6,0.7-7C156.9,94.4,157,94.4,157,94.9z"/>
	<path class="st11" d="M159.9,86.7c1.1,1.1,4.7,15.5,3.8,22.2h4.5c0,0,1.5-14-1.2-22.2L159.9,86.7z"/>
	<path class="st8" d="M159.9,86.7c4.4,4.5,6.1,17.8,3.7,24.9l-8.6-2.2l1.9-14.9c0,0-12.2-0.8-8.8,13.8l-3.3,1.4
		c0,0-6.1-9.6,1.3-17.3C151.8,86.6,159.9,86.7,159.9,86.7z"/>
	<path class="st8" d="M166.9,86.7c2-0.1,4,0.5,5.6,1.6c3.5,2.3,8,2.6,11.7,0.6c3.8-2,6.3-4.6,11-12.3l2.7,2.3
		c0,0-7.3,22.8-27.2,17.8"/>
	<path class="st8" d="M173.1,96.8l2.3,11l-7.3,4.1c0,0,1.2-18.2-1.1-25.2"/>
	<path class="st9" d="M159.4,101.7l1.9,0.1l1,0.1h0.5h0.2c0.1,0,0.3,0,0.4,0.1l-0.1,0.6l-0.1,0.5c-0.1,0.3-0.1,0.6-0.2,1
		c-0.1,0.6-0.4,1.3-0.6,1.9c-0.3,0.7-0.9,1.1-1.6,1.2c-0.4,0-0.8-0.2-1-0.5c-0.2-0.3-0.4-0.6-0.5-0.9c-0.3-1.3-0.4-2.6-0.2-3.9
		c0-0.2,0.2-0.2,0.1,0c-0.1,1.3,0,2.5,0.4,3.8c0.2,0.6,0.6,1.1,1.1,1.1c0.6-0.1,1-0.5,1.2-1c0.3-0.6,0.5-1.2,0.6-1.8
		c0.1-0.3,0.1-0.6,0.2-0.9l0.1-0.8l-3.6-0.4C159.2,101.8,159.2,101.6,159.4,101.7z"/>
	<circle class="st7" cx="160.1" cy="79.8" r="1.1"/>
	<polygon class="st10" points="142.5,113 156.1,105.2 161.9,115.9 148.2,123.3 	"/>
	<path class="st0" d="M145.3,109.5l0.7,1.6c0,0-0.5,4.1,1.5,5.3c1.7,1,3.8-1.9,1.5-4.6c-0.4-0.5-0.8-1.1-1.2-1.6l-0.4-1.5
		L145.3,109.5z"/>
	<path class="st9" d="M158.1,115.6c-1-2.2-2.1-4.3-3.2-6.5c0,0,0-0.1,0.1-0.1c0,0,0.1,0,0.1,0c1.4,2,2.5,4.2,3.3,6.5
		c0,0,0,0.1,0,0.1C158.1,115.7,158.1,115.7,158.1,115.6L158.1,115.6z"/>
	<path class="st9" d="M154.6,116.3c-1.1-1.6-2-3.3-2.6-5.2c0-0.1,0.1-0.1,0.1-0.1c0.9,1.7,1.8,3.4,2.6,5.2
		C154.7,116.2,154.6,116.3,154.6,116.3z"/>
	<path class="st9" d="M157.5,92.7c-0.2,0.7-0.3,1.2-0.6,1.9c0,0-0.1,0-0.1,0c-0.1-0.7,0.1-1.5,0.6-2
		C157.4,92.6,157.5,92.7,157.5,92.7z"/>
	<path class="st9" d="M163.9,90.3c0.6,0.7,1.1,1.4,1.7,2.2L166,93c0.1,0.2,0.2,0.3,0.4,0.5c0.1,0.1,0.2,0.1,0.3-0.1
		c0.1-0.2,0.1-0.4,0.1-0.6c0.1-0.9,0.1-1.8,0-2.7l-0.1-2.8c0-0.1,0.1-0.2,0.1,0l0.3,2.7c0.1,0.9,0.2,1.9,0.1,2.8
		c0,0.3-0.1,0.5-0.2,0.7c-0.1,0.2-0.2,0.3-0.4,0.3c-0.2,0-0.3,0-0.5-0.1c-0.2-0.2-0.4-0.3-0.5-0.6l-0.4-0.6c-0.5-0.8-1-1.5-1.5-2.3
		C163.7,90.2,163.8,90.2,163.9,90.3z"/>
	<path class="st9" d="M144.3,106.6c1-0.5,2.1-0.8,3.3-0.9c0,0,0.1,0.1,0,0.1c-1,0.5-2.1,0.8-3.3,0.9
		C144.3,106.8,144.3,106.6,144.3,106.6z"/>
	<path class="st9" d="M164.2,81.3c0.5,0.1,0.9,0.4,1.3,0.7c0,0,0,0.2-0.1,0.1c-0.5,0-1-0.3-1.4-0.7
		C164.1,81.4,164.2,81.3,164.2,81.3z"/>
	<path class="st1" d="M159.9,65.1c0,0-4.8-11-11.6-7.8c0,0-8.7,5.1-2.8,11.9c2.5,2.9,6.5,3.8,10,2.4L159.9,65.1z"/>
	<path class="st8" d="M227.2,97.7c0,0-19.6,6.8-15.2,18.8c0,0,3.2,10.1,6.7,13.8h5.7c0,0-8.2-14.7-2.6-20.1c0,0,7.5-6,9.9-4.9
		c-0.6,4.9-1,9.9-1.1,14.9c-0.1,6.5,2.7,12.7,7.8,16.8c1,0.9,2.2,1.6,3.5,2.1l3.1-1.7c0,0-7.5-11.7-5.2-21.3c0,0,3.5-13.8,0.8-19.3
		L227.2,97.7z"/>
	<path class="st1" d="M228.7,53.5c0,0-3.6,7-2.9,10.6c0.7,3.6,7.3,2.6,7.3,2.6l-2.2,4.5c0,1.1,7,1.2,6.9,0.2c0-0.3-0.1-6.7-0.1-6.2
		c0,0,1.8-6,1.7-6.5s-3.7-6-3.7-6L228.7,53.5z"/>
	<path class="st5" d="M229.1,53.1c-2.6,1.2,7-0.6,6.6,2.5s-0.8,6.3-0.8,6.3l1.3,0.4c0.5-0.6,1.6-3.2,2.5-1.8c0.6,1-0.9,4.7-0.8,4.6
		c1.9-0.9,3.4-2.6,3.7-7.2S235.3,50.1,229.1,53.1z"/>
	<path class="st12" d="M238,70.2c0,0-3.6,1.9-6.8,0.5l-4.1,27l13.4-1l-0.1-16.4"/>
	<path class="st12" d="M201.7,70.2c1.2,6.4,4,9.1,7.9,11.5c6.2,3.8,14,3.8,20.3,0.2c0.6-0.3,0.9-0.5,0.9-0.5l0.5-10.7
		c0,0-0.7,0.1-2.5,2.1s-4.2,4.6-8.5,5.3c0,0-11.5,1.7-15.8-8.1L201.7,70.2z"/>
	<path class="st12" d="M238,70.2c0,0,11.9,6.1,12.7,16.6c0.6,8.2-8.9,11.2-8.9,11.2l-1.2-3.1c0,0,5.8-2.6,5.5-7.2
		c0-3.5-2.4-6.5-5.7-7.4"/>
	<polygon class="st13" points="230.2,97.8 238.2,88.9 240.1,90.6 232.2,99.4 	"/>
	<polygon class="st5" points="232.2,99.4 229.8,100.2 230.2,97.8 	"/>
	<polygon class="st0" points="238.1,89.1 240,90.7 241.8,88.7 239.8,87.1 	"/>
	<path class="st1" d="M241.7,97.6c-0.8,0.1-2.3,0.6-2.9,0.6c-0.8,0.2-2,1.3-3.1,0.7s-0.5-2.6-0.5-2.7s-3.3,1.5-3.5,1
		s2.4-2.6,3.9-2.9s3.9,1.6,3.9,1.6c0.4-0.3,0.8-0.4,1.2-0.6L241.7,97.6z"/>
	<path class="st9" d="M235.4,76.6h2h1.1c0.1,0,0.1,0,0.2,0v0.2v0.3v0.5c-0.1,1.4-0.3,2.7-0.7,4c-0.1,0.4-0.3,0.7-0.4,1
		c-0.1,0.2-0.3,0.3-0.5,0.4c-0.2,0.1-0.5,0-0.6-0.1c-0.5-0.6-0.8-1.3-0.8-2c-0.2-1.3-0.4-2.7-0.4-4.1c0-0.2,0.1-0.2,0.1,0
		c0.1,1.3,0.3,2.7,0.6,4c0.1,0.6,0.3,1.2,0.7,1.8c0.2,0.2,0.4,0.1,0.6-0.2c0.2-0.3,0.3-0.6,0.4-0.9c0.4-1.3,0.6-2.6,0.8-4l0.1-0.5
		c0-0.2,0-0.2,0-0.2h-1h-2C235.2,76.8,235.2,76.6,235.4,76.6z"/>
	<path class="st9" d="M240.3,78.6c0.2,0.5,0.2,1.1,0.1,1.6c0,0-0.1,0-0.1,0c-0.2-0.5-0.2-1.1-0.1-1.6
		C240.2,78.6,240.3,78.6,240.3,78.6z"/>
	<path class="st9" d="M229.8,75.9c0,1.8-0.2,3.6-0.5,5.4c0,0.1-0.1,0.1-0.1,0c0-1.8,0.2-3.6,0.5-5.4
		C229.7,75.8,229.8,75.8,229.8,75.9z"/>
	<path class="st9" d="M235.3,65.6c-0.6,0.5-1.2,0.8-1.9,1c0,0-0.1-0.1-0.1-0.1c0.6-0.5,1.2-0.8,1.9-1
		C235.2,65.5,235.3,65.6,235.3,65.6z"/>
	<path class="st9" d="M230.7,99.8c-0.3-0.1-0.6-0.3-0.8-0.7c0,0,0.1-0.1,0.1-0.1c0.3,0.1,0.6,0.3,0.8,0.7
		C230.8,99.7,230.7,99.8,230.7,99.8z"/>
	<path class="st9" d="M239.1,91.5c-0.7-0.2-1.3-0.6-1.7-1.1c0,0,0-0.1,0.1-0.1c0.7,0.2,1.3,0.6,1.8,1.1
		C239.2,91.4,239.1,91.5,239.1,91.5z"/>
	<path class="st9" d="M237.2,93.2c-0.5-0.3-0.9-0.7-1.2-1.2c0,0,0.1-0.1,0.1-0.1c0.5,0.3,0.9,0.7,1.2,1.2
		C237.3,93.1,237.2,93.2,237.2,93.2z"/>
	<path class="st0" d="M218.7,130.3c0,0-3.9,0.2-5.2,2.1h11.2l-0.4-2.1H218.7z"/>
	<path class="st0" d="M244.9,137.4l2.1,2.3l-3.3,3.9h-7.8c0,0,2.6-2.5,5.6-2.2l0.4-2.4L244.9,137.4z"/>
	<path class="st0" d="M192.3,54.8l-4.7-15.7c0-0.1,0-0.1,0.1-0.2L204,27.6c0.1,0,0.2,0,0.2,0c0,0,0,0,0,0l4.1,16.5
		c0,0.1,0,0.1-0.1,0.2l-15.7,10.5C192.5,54.9,192.4,54.9,192.3,54.8C192.3,54.8,192.3,54.8,192.3,54.8z"/>
	<path class="st0" d="M205.7,33.5l13.9-9.3c0.1-0.1,0.2,0,0.3,0.1c0,0,0,0.1,0,0.1l-2.9,11.2c0,0.1,0,0.2,0.1,0.2c0,0,0,0,0,0l9,1.5
		c0.1,0,0.2,0.1,0.1,0.2c0,0,0,0.1-0.1,0.1l-19.9,12.5c-0.1,0.1-0.3,0-0.3-0.1c0,0,0,0,0-0.1l-0.9-3.5l3.3-2.2
		c0.1,0,0.1-0.1,0.1-0.2L205.7,33.5z"/>
	<line class="st14" x1="200" y1="79.7" x2="187.6" y2="39.5"/>
	<path class="st8" d="M312.2,87.4l-1.5-1.8c0,0-1.1-5.4-4.1-6.1c-2.6-0.5-4.1,4,0,6.5c0.8,0.5,1.5,1,2.2,1.6l1.1,1.8L312.2,87.4z"/>
	<path class="st8" d="M278.8,88.9l0.8-2.3c0,0,4.5-3.8,3.5-6.9c-0.8-2.7-5.8-1.7-6,3.3c-0.1,1-0.2,1.9-0.4,2.8l-1.1,2L278.8,88.9z"
		/>
	<ellipse class="st3" cx="294.8" cy="174.7" rx="18.2" ry="0.9"/>
	<path class="st0" d="M284.5,172.6l2.2-2.6l-0.1,2.7c0,0.1,5.4-32.5,8-32.9c4.7,0.1,7.6,32.8,7.6,32.8l2.2-0.1c0,0,4.4-21.9,0-34.8
		c-1-2.9-2.8-5.5-5.1-7.6H290C281.6,139.7,284.5,172.6,284.5,172.6z"/>
	<path class="st0" d="M289,119.1l1,11.2h9.4l2-10.4c0,0,14.5-9.5,14.4-22.9c0,0,0-7.7-3.7-10.3l-2.7,2.3c0.2,0.5,0.3,0.9,0.5,1.4
		c2.3,8.3-1.7,17-9.5,20.7c-2.4,1.3-5.2,1.8-7.9,1.4c0,0-11.7-1.6-13.8-11.6c0,0-1.5-6.5,0.3-12l-3-2.9c0,0-6.5,11-1.7,20.5
		C274.2,106.3,279.3,116.9,289,119.1z"/>
	<path class="st8" d="M289.5,95c-0.8,1.8-3.7,9.2-2,11s5.7,2.2,5.7,2.2c-0.3,1.2-0.6,2.4-1,3.6c-0.2,0.5,0.3,0.7,2.4,0.9
		s3,0.3,3-0.9c0-0.7,0.4-6.7,0.4-6.7s2.9-0.2,3-1.5s-1.3-1.3-2.8-0.9l0.2-2.6C298.5,100.2,292.3,95.7,289.5,95z"/>
	<path class="st9" d="M301.4,119.8c-0.1-0.6,0-1.3,0.3-1.9h0.1c0.1,0.6,0,1.3-0.3,1.9C301.5,119.8,301.4,119.8,301.4,119.8z"/>
	<path class="st9" d="M288.9,119.2c-0.2-0.6-0.2-1.3-0.1-2c0,0,0.1,0,0.1,0c0.2,0.6,0.2,1.3,0.1,2
		C289.1,119.2,288.9,119.2,288.9,119.2z"/>
	<path class="st9" d="M301.6,135.8c-1.9-1.1-3.1-3.2-3.2-5.4c0-0.1,0.1-0.1,0.1,0c0.4,2.1,1.5,3.9,3.1,5.3
		C301.8,135.7,301.7,135.8,301.6,135.8z"/>
	<path class="st9" d="M288.4,135.8c0.5-0.1,0.8-0.5,1.1-0.9c0.3-0.4,0.6-0.8,0.9-1.2c0.5-0.8,0.8-1.8,0.9-2.8c0,0,0-0.1,0.1-0.1
		s0.1,0,0.1,0.1c0.1,1-0.1,2.1-0.7,3c-0.3,0.4-0.6,0.8-0.9,1.2c-0.4,0.3-0.7,0.8-1.3,0.8C288.3,136,288.3,135.8,288.4,135.8z"/>
	<path class="st9" d="M295.3,107.5c-0.6,0.6-1.3,0.8-2.1,0.8c0,0,0-0.1,0-0.1c0.7-0.2,1.3-0.5,2-0.8
		C295.3,107.4,295.4,107.5,295.3,107.5z"/>
	<path class="st12" d="M297.7,110.1l-5.5,1.7c0,0-3,3.2-1.3,6.4c1.2-1.4,1.9-3.1,2.1-4.9c0,0,0.2,5,2.8,5.9c0,0,1.5-2.6-2.3-5.9
		l4.2-0.1L297.7,110.1z"/>
	<path class="st15" d="M289.6,92.1c9.7-0.2,11.8,8.8,11.8,8.8c-0.5-6.6-3.5-9.1-6-10.1h-0.1C293.3,90.5,291.3,91,289.6,92.1z"/>
	<circle class="st1" cx="295.7" cy="89.7" r="3.9"/>
	<circle class="st1" cx="300.6" cy="91" r="3.9"/>
	<circle class="st1" cx="303.2" cy="94.3" r="3.9"/>
	<circle class="st1" cx="303.4" cy="99.3" r="3.9"/>
	<circle class="st1" cx="291.5" cy="91.6" r="3.2"/>
	<circle class="st1" cx="301" cy="104.4" r="3.2"/>
	<path class="st1" d="M290,98.6c1-0.2,1.9-0.5,2.6-1.1c0,0,0,4.3,5.6,6.1c-1.2,0.8-1.6,2.4-0.8,3.6c0.1,0.1,0.2,0.3,0.3,0.4
		c1.8-0.9,3.2-2.5,3.9-4.4c0.9-2.4,2.5-9.7-5.4-11.7h-0.1c-1.7-0.6-3.6-0.4-5.3,0.4l0,0c-1.6,0.9-2.9,2.4-3.4,4.2
		C287.1,97.7,288.3,98.9,290,98.6z"/>
	<path class="st5" d="M291,91.9c8.7,1.2,9.4,9.5,9.4,9.5c0.5-6-1.9-8.7-4-9.9h-0.1C294.5,90.9,292.6,91.1,291,91.9z"/>
	<path class="st8" d="M296.8,105.9c0,0,3.8-0.7,3.8-1.9s-1.9-1-3.4-0.5"/>
	<path class="st9" d="M290.1,130.2c3.1-0.2,6.2-0.2,9.3,0c0.1,0,0.1,0.1,0,0.1c-3.1,0.1-6.2,0.2-9.3,0
		C290,130.3,290,130.2,290.1,130.2z"/>
	<path class="st1" d="M306.5,172.8L306.5,172.8L306.5,172.8z"/>
	<path class="st1" d="M306.3,172.7l-0.5-0.1C306,172.6,306.1,172.6,306.3,172.7z"/>
	<path class="st1" d="M302.2,172.6L302.2,172.6c0,0.2,0,0.5,0,0.5s0.7,0.1,1.5,0.2l0.8-0.9l0.4,0.1l-0.3,0.9c0.4,0,0.8,0.1,1.1,0.1
		c0.5,0,0.9-0.2,1.3-0.5c0.7,0.2,1.2,0.9,1.2,1.6h-5.8L302.2,172.6z"/>
	<path class="st8" d="M305.7,173.4c-0.3,0-0.7,0-1.1-0.1l0.3-0.9l-0.4-0.1l-0.8,0.9c-0.8-0.1-1.5-0.2-1.5-0.2s0-0.3,0-0.5
		s0-0.4,0-0.5c-0.1-1-0.3-3-0.6-5.7l4-0.6c-0.4,3.1-0.8,5.3-1,6.3l0,0c0,0.1,0,0.2-0.1,0.3c0.4,0,0.9,0.1,1.3,0.2l0.5,0.1h0.1h0
		c0.2,0.1,0.3,0.1,0.5,0.2l0,0C306.6,173.3,306.2,173.4,305.7,173.4z"/>
	<path class="st1" d="M282.6,172.8L282.6,172.8L282.6,172.8z"/>
	<path class="st1" d="M282.8,172.7l0.5-0.1C283.1,172.6,282.9,172.6,282.8,172.7z"/>
	<path class="st1" d="M286.9,172.6L286.9,172.6c0,0.2,0,0.5,0,0.5s-0.7,0.1-1.5,0.2l-0.8-0.9l-0.4,0.1l0.3,0.9
		c-0.4,0-0.8,0.1-1.1,0.1c-0.5,0-0.9-0.2-1.3-0.5c-0.7,0.2-1.2,0.9-1.2,1.6h5.8L286.9,172.6z"/>
	<path class="st8" d="M283.4,173.4c0.3,0,0.7,0,1.1-0.1l-0.3-0.9l0.4-0.1l0.8,0.9c0.8-0.1,1.5-0.2,1.5-0.2s0-0.3,0-0.5s0-0.4,0-0.5
		c0.1-1,0.5-3,0.8-5.7h-3.6c0.1,3,0.3,5.9,0.3,5.9c-0.4,0-0.8,0.1-1.2,0.2l-0.5,0.1h-0.1h-0.1c-0.2,0.1-0.3,0.1-0.5,0.2l0,0
		C282.4,173.2,282.9,173.4,283.4,173.4z"/>
	<circle class="st5" cx="294.6" cy="120.7" r="0.7"/>
	<circle class="st5" cx="294.6" cy="123.9" r="0.7"/>
	<circle class="st5" cx="294.6" cy="127.1" r="0.7"/>
	<path class="st16" d="M205.7,33.5c0,0,7.9,12.1,7.8,12.2l-7.2,4.6c-0.3,0.2-0.6,0.1-0.8-0.2c0-0.1-0.1-0.1-0.1-0.2l-0.5-3.4
		l3.3-2.2L205.7,33.5z"/>
</g>
</svg>
