<svg xmlns="http://www.w3.org/2000/svg" width="205.189" height="184.234" viewBox="0 0 205.189 184.234"><defs><style>.a,.b,.j,.l{fill:none;}.a,.b{stroke:#cc4e00;}.a{stroke-miterlimit:10;}.b,.j,.l{stroke-linecap:round;stroke-linejoin:round;}.c{fill:#f58220;}.d{fill:#ccf;}.e{opacity:0.1;}.f{fill:#8e8eed;}.g{fill:#4d9aff;}.h{fill:#cc4e00;}.i{fill:#ffc24f;}.j{stroke:#fff;stroke-width:0.5px;}.k{fill:#fff;}.l{stroke:#f58220;stroke-width:0.86px;}.m{fill:#ffe5b2;}.n{fill:#e085d3;}</style></defs><g transform="translate(0.261 -3.82)"><path class="a" d="M62.24,136.22V74.61L104.11,46.1"/><path class="a" d="M147.25,136.59V74.99L105.38,46.47"/><path class="a" d="M106.94,45.7l73.2,13.28V86"/><path class="a" d="M104.13,45.91,30.93,59.19V86.22"/><line class="a" y1="40.14" transform="translate(104.4 46.21)"/><line class="b" y1="40.14" transform="translate(104.88 4.32)"/><ellipse class="c" cx="8.13" cy="2.64" rx="8.13" ry="2.64" transform="translate(97.31 43.65)"/><path class="d" d="M194.39,119.14l-26.89-8.55,8-25.19a1,1,0,0,1,1.21-.63l7.2,2.29a1,1,0,0,1,.63.63l.92,3a1,1,0,0,0,.63.63L201,96.06a1,1,0,0,1,.63,1.22Z"/><path class="e" d="M201,96.06l-1.9-.61a202.385,202.385,0,0,1-8.81,22.39l4.08,1.3,7.26-21.86A1,1,0,0,0,201,96.06Z"/><path class="f" d="M194.46,119.16l-27-8.57,10.57-17.93a1,1,0,0,1,1.12-.43l25.08,8a1,1,0,0,1,.54,1.41Z"/><path class="e" d="M204.27,100.2l-1.35-.43c-2.62,5.57-6.25,10.26-10.27,14.93-.87,1-1.71,2-2.55,3.07l4.36,1.39,10.35-17.55a1,1,0,0,0-.54-1.41Z"/><circle class="c" cx="2.99" cy="2.99" r="2.99" transform="translate(176.75 56.63)"/><circle class="c" cx="2.99" cy="2.99" r="2.99" transform="translate(144.14 72.71)"/><circle class="c" cx="2.99" cy="2.99" r="2.99" transform="translate(58.7 71.56)"/><circle class="c" cx="2.99" cy="2.99" r="2.99" transform="translate(27.93 56.4)"/><rect class="g" width="38.26" height="48.6" rx="3.03" transform="translate(111.918 144.96) rotate(-27.54)"/><path class="h" d="M126.29,172.34l4.34-9.9,8.19,1.24,5.5-17.18,13.3,3.25,9.14,18a2.94,2.94,0,0,1-1.26,3.93L137.16,186.6a3.05,3.05,0,0,1-4.1-1.1Z"/><path class="e" d="M166.9,167.67,147.24,130a3,3,0,0,0-2.46-1.61A114.221,114.221,0,0,1,157,154.85a104.789,104.789,0,0,1,3.89,16c.17,1,.28,2.1.38,3.16l4.34-2.26a3,3,0,0,0,1.29-4.08Z"/><circle class="i" cx="6.01" cy="6.01" r="6.01" transform="translate(122.95 143.96)"/><line class="j" x2="26.2" y2="7.03" transform="translate(138.82 163.68)"/><circle class="k" cx="3.16" cy="3.16" r="3.16" transform="translate(135.92 136.79)"/><path class="b" d="M139.21,141.06c-2.92-2.61-3.89-7.54-3.92-11.29"/><path class="i" d="M109.24,96.36s12.17,7.07,9.68,17.88-10.62,14.83-19.66,14.55-16.77-10.08-14.4-20.6c1.49-6.22,6.06-12.11,12.31-12.78C102.88,95.7,109.24,96.36,109.24,96.36Z"/><path class="e" d="M109.24,96.36h-.3c2.48,3.69,4.49,6.92,5,11.66.53,4.53-.06,9.29-2.6,13.18a22.2,22.2,0,0,1-8.67,7.51c7.6-.76,14-5,16.22-14.44C121.41,103.43,109.24,96.36,109.24,96.36Z"/><rect class="c" width="18.29" height="5.23" rx="1.71" transform="translate(111.558 96.663) rotate(-175.34)"/><path class="e" d="M93.84,91.89c5.89,0,11.79,0,17.68.12a1.71,1.71,0,0,0-1.24-.7L95.46,90.1a1.71,1.71,0,0,0-1.84,1.57v.24Z"/><rect class="c" width="14.39" height="4.11" rx="1.35" transform="translate(110.35 91.485) rotate(-175.34)"/><path class="e" d="M110.17,87.65a1.41,1.41,0,0,0-.82-.37l-11.66-1a1.35,1.35,0,0,0-1.45,1.2C100.86,87.8,105.52,87.71,110.17,87.65Z"/><path class="l" d="M105.54,96c.07.4,2.47,18.52,2.47,18.52l-6.63-5.69-6.84,3.76,4.75-17.15"/><circle class="c" cx="2.93" cy="2.93" r="2.93" transform="translate(100.47 83.65)"/><circle class="k" cx="1.75" cy="1.75" r="1.75" transform="translate(101.4 85.16)"/><path class="b" d="M103.42,87.42c-2.92-2.61-3.88-7.53-3.91-11.28"/><circle class="k" cx="2.21" cy="2.21" r="2.21" transform="translate(175.74 86.64)"/><path class="b" d="M178,89.56c-2.92-2.6-3.88-7.53-3.91-11.28"/><rect class="f" width="33.43" height="33.43" rx="2" transform="translate(-0.261 93.85) rotate(-22.6)"/><path class="e" d="M28.76,81.77,28,82.1c5,10.61,5.7,22.12,6.17,33.64l7.47-3.11A2,2,0,0,0,42.69,110L31.38,82.85a2,2,0,0,0-2.62-1.08Z"/><path class="m" d="M4.59,95.81l4.04,8.43,8.26-4.43-3.6-7.87Z"/><line class="j" y1="8.51" x2="18.58" transform="translate(11.01 99.06)"/><line class="j" y1="8.26" x2="18.02" transform="translate(12.78 102.33)"/><line class="j" y1="6.34" x2="14.47" transform="translate(14.09 107.09)"/><path class="j" d="M16.25,117.66s-.05-1.16,1.94-.89c1.36,0,.66-.5,1.2-1.24s1-.16,1.57-.23.91-.8,1.92-1.37,1.72.1,2.61-.31"/><rect class="n" width="39.55" height="39.55" rx="2.28" transform="translate(32.15 155.991) rotate(-45)"/><path class="e" d="M57.65,130.83C66.9,140,77,148.14,87.11,156.32a2.25,2.25,0,0,0-.63-1.95L61.73,129.63a2.28,2.28,0,0,0-3.22,0l-1,1Z"/><path class="k" d="M54,148.55a17.65,17.65,0,0,0,4.61-2c1.28-.8,2.71-1.76,2.93-3.37a1.8,1.8,0,0,0-.42-1.66,1.42,1.42,0,0,0-1.58,0c-1.17.71-1.24,2.35-1,3.54A4.46,4.46,0,0,0,61,148.57c1.17.54,2.9,1,4.08.29a4.43,4.43,0,0,0,1.34-1.57,2,2,0,0,0,.36-1.78,1,1,0,0,0-1.28-.58,1.44,1.44,0,0,0-.79,1.4c.08,1.85,2.17,2.41,3.64,2.65a53.936,53.936,0,0,0,6.47.67.415.415,0,0,0,0-.83A40,40,0,0,1,67.6,148a3.16,3.16,0,0,1-1.54-.71c-.28-.27-.83-1.13-.34-1.48.32-.22.38.21.29.49a5.58,5.58,0,0,1-1.34,1.85c-.9.57-2.35.11-3.24-.29a3.51,3.51,0,0,1-2-2.41,3.67,3.67,0,0,1,.17-2.8c.3-.46,1-.84,1.14-.08a2.21,2.21,0,0,1-.49,1.64,9.09,9.09,0,0,1-3,2.17,16.57,16.57,0,0,1-3.48,1.37.42.42,0,0,0,.22.81Z"/><path class="k" d="M54.65,159.21c.11-.72,2.48-.28,3-.26a3.62,3.62,0,0,0,2.41-.69,2.64,2.64,0,0,0,1.05-2.12c-.08-.82-1.05-1.2-1.76-1.33a1.54,1.54,0,0,0-1.82.95,2.39,2.39,0,0,0,.83,2.21c1.49,1.45,3.66,1.31,5.58,1.24a14.07,14.07,0,0,1,7.26,1.36c.47.25.89-.47.42-.72a13.47,13.47,0,0,0-6-1.48c-2-.07-4.54.56-6.31-.72a2.42,2.42,0,0,1-.9-1.12c-.35-1.06.8-1,1.43-.7,1.24.56-.29,2-1,2.18a14,14,0,0,1-3.17,0c-.67,0-1.6.17-1.73,1-.08.53.72.75.81.22Z"/><path class="k" d="M52.07,167.52a8.36,8.36,0,0,0,2.91.81,12.22,12.22,0,0,0,3.36.15,7.32,7.32,0,0,0,2.8-1.08,2.51,2.51,0,0,0,1.38-1.82c.16-1.68-2.36-2.18-2.45-.39-.11,2.1,2.66,2.59,4.17,2.87,1.32.24,2.65.41,4,.52,1.06.08,2.19.25,3.06-.47.42-.34-.17-.92-.59-.59-.67.55-1.93.27-2.71.2-1-.08-2-.21-3-.38a14.151,14.151,0,0,1-2.58-.57,2.53,2.53,0,0,1-1.17-.78c-.18-.24-.6-1.16.08-1.12s.45.79.25,1.11a2.58,2.58,0,0,1-1,.8,6.3,6.3,0,0,1-2.68.92,14,14,0,0,1-2.89-.2,7.46,7.46,0,0,1-2.5-.7c-.47-.26-.89.46-.42.72Z"/><circle class="k" cx="1.57" cy="1.57" r="1.57" transform="translate(47.94 145.3)"/><circle class="k" cx="1.57" cy="1.57" r="1.57" transform="translate(47.05 156.51)"/><circle class="k" cx="1.57" cy="1.57" r="1.57" transform="translate(46.07 164.84)"/><circle class="k" cx="2.62" cy="2.62" r="2.62" transform="translate(57.33 131.74)"/><path class="b" d="M60.07,134.93c-2.92-2.61-3.88-7.53-3.91-11.28"/><circle class="k" cx="2.62" cy="2.62" r="2.62" transform="translate(24.63 83.67)"/><path class="b" d="M27.37,86.86c-2.91-2.61-3.88-7.53-3.91-11.28"/></g></svg>