<svg xmlns="http://www.w3.org/2000/svg" width="195.03" height="173.475" viewBox="0 0 195.03 173.475"><defs><style>.a{fill:#4d9aff;opacity:0.4;}.b{fill:#f4c6ef;}.c{fill:#fff;}.d{fill:none;stroke:#4d9aff;stroke-linecap:round;stroke-linejoin:round;strokeWidth:1.93px;}.e{fill:#f58220;}.f,.k{opacity:0.1;}.g{fill:#8e8eed;}.h{fill:#7dcc7a;}.i{fill:#ffc74f;}.j{fill:#ff8880;}</style></defs><g transform="translate(-6.06 -5.635)"><path class="a" d="M197.75,171.58h0V151.49L188,141.15H20.77c-.25.27-8.36,10.34-8.36,10.34h.43v20.09l-4.29,4.86v2.67H201.09v-2.67Z"/><path class="b" d="M18.28,139.52H185.47l9.78,10.33H9.92S18,139.78,18.28,139.52Z"/><path class="c" d="M195.25,149.85H10.35v20.74H195.26Z"/><path class="b" d="M10.35,169.94,6.06,174.8H198.61l-3.35-4.86Z"/><path class="c" d="M198.61,174.8H6.06v2.67H198.6Z"/><line class="d" y2="134.23" transform="translate(40.54 7.25)"/><line class="d" y2="134.24" transform="translate(81.9 6.6)"/><line class="d" y2="134.23" transform="translate(123.27 7.89)"/><line class="d" y2="134.24" transform="translate(164.63 6.6)"/><ellipse class="e" cx="12.08" cy="11.39" rx="12.08" ry="11.39" transform="translate(28.46 119.54)"/><path class="f" d="M42.62,119.72a18.82,18.82,0,0,1,5.24,14.6,28.88,28.88,0,0,1-1,6.3,11.25,11.25,0,0,0,5.76-9.69,11.61,11.61,0,0,0-10-11.21Z"/><ellipse class="g" cx="12.08" cy="11.39" rx="12.08" ry="11.39" transform="translate(28.46 74.58)"/><path class="f" d="M42.62,74.77a18.79,18.79,0,0,1,5.24,14.6,28.88,28.88,0,0,1-1,6.29A11.25,11.25,0,0,0,52.62,86a11.59,11.59,0,0,0-10-11.23Z"/><ellipse class="h" cx="12.08" cy="11.39" rx="12.08" ry="11.39" transform="translate(69.82 119.29)"/><path class="f" d="M84,119.48a18.8,18.8,0,0,1,5.25,14.6,30.141,30.141,0,0,1-1,6.29A11.24,11.24,0,0,0,94,130.68a11.59,11.59,0,0,0-10-11.2Z"/><ellipse class="i" cx="12.08" cy="11.39" rx="12.08" ry="11.39" transform="translate(111.19 120.1)"/><path class="f" d="M125.35,120.28a18.81,18.81,0,0,1,5.24,14.6,29.689,29.689,0,0,1-1,6.3,11.25,11.25,0,0,0,5.75-9.69,11.6,11.6,0,0,0-9.99-11.21Z"/><ellipse class="e" cx="12.08" cy="11.39" rx="12.08" ry="11.39" transform="translate(111.19 97.27)"/><path class="f" d="M125.35,97.46a18.81,18.81,0,0,1,5.24,14.6,29.5,29.5,0,0,1-1,6.29,11.24,11.24,0,0,0,5.75-9.69,11.6,11.6,0,0,0-9.99-11.2Z"/><ellipse class="i" cx="12.08" cy="11.39" rx="12.08" ry="11.39" transform="translate(111.19 24.12)"/><path class="f" d="M125.35,24.31a18.81,18.81,0,0,1,5.24,14.6,29.5,29.5,0,0,1-1,6.29,11.24,11.24,0,0,0,5.75-9.69,11.6,11.6,0,0,0-9.99-11.2Z"/><ellipse class="j" cx="12.08" cy="11.39" rx="12.08" ry="11.39" transform="translate(152.55 119.29)"/><path class="f" d="M166.71,119.48a18.79,18.79,0,0,1,5.24,14.6,28.879,28.879,0,0,1-1,6.29,11.25,11.25,0,0,0,5.76-9.69A11.59,11.59,0,0,0,166.71,119.48Z"/><ellipse class="j" cx="12.08" cy="11.39" rx="12.08" ry="11.39" transform="translate(152.55 72.41)"/><path class="f" d="M166.71,72.59A18.83,18.83,0,0,1,172,87.2a28.879,28.879,0,0,1-1,6.29,11.25,11.25,0,0,0,5.76-9.69,11.61,11.61,0,0,0-10.05-11.21Z"/><path class="i" d="M39.55,98.32l-12.81,19.5a1.18,1.18,0,0,0,1,1.83H53.35a1.18,1.18,0,0,0,1-1.83L41.53,98.32a1.18,1.18,0,0,0-1.98,0Z"/><path class="f" d="M54.34,117.82,41.53,98.32a1.18,1.18,0,0,0-.83-.52c.1.14.2.29.29.44,3.89,6.81,6.16,14.07,3.31,21.41h9.05a1.18,1.18,0,0,0,.99-1.83Z"/><path class="h" d="M122.28,75.9,109.47,95.4a1.18,1.18,0,0,0,1,1.83h25.61a1.18,1.18,0,0,0,1-1.83L124.25,75.9a1.17,1.17,0,0,0-1.97,0Z"/><path class="f" d="M137.06,95.4,124.25,75.9a1.14,1.14,0,0,0-.82-.52c.1.14.19.29.28.44,3.89,6.81,6.17,14.07,3.32,21.41h9a1.18,1.18,0,0,0,1.03-1.83Z"/><path class="h" d="M163.64,97l-12.81,19.5a1.19,1.19,0,0,0,1,1.84h25.62a1.19,1.19,0,0,0,1-1.84L165.62,97a1.19,1.19,0,0,0-1.98,0Z"/><path class="f" d="M178.43,116.52,165.62,97a1.17,1.17,0,0,0-.83-.51,4.728,4.728,0,0,1,.28.44c3.89,6.81,6.17,14.06,3.32,21.41h9.05a1.19,1.19,0,0,0,.99-1.82Z"/><rect class="g" width="20.63" height="20.63" rx="1.12" transform="translate(71.59 97.7)"/><path class="f" d="M91.09,97.7H89.26c.42,5-1.09,10.59-2.43,15.06a55.914,55.914,0,0,1-2,5.57h6.29a1.14,1.14,0,0,0,1.13-1.13V98.82a1.13,1.13,0,0,0-1.16-1.12Z"/><rect class="i" width="20.63" height="20.63" rx="1.12" transform="translate(154.31 51.73)"/><path class="f" d="M173.82,51.73H172c.42,5-1.08,10.6-2.43,15.07a53.273,53.273,0,0,1-2,5.57h6.29a1.13,1.13,0,0,0,1.12-1.13V52.86a1.13,1.13,0,0,0-1.16-1.13Z"/><rect class="j" width="20.63" height="20.63" rx="1.12" transform="translate(108.68 61.044) rotate(-45)"/><g class="k"><path d="M137.06,60.25,126.85,50c1.88,6.08,3.28,11.51,0,17.57a67.48,67.48,0,0,1-4.49,7.07l.16.16a1.12,1.12,0,0,0,1.59,0l13-13A1.12,1.12,0,0,0,137.06,60.25Z"/></g></g></svg>