<?xml version="1.0" encoding="UTF-8" standalone="no"?>
<!DOCTYPE svg PUBLIC "-//W3C//DTD SVG 1.1//EN" "http://www.w3.org/Graphics/SVG/1.1/DTD/svg11.dtd">
<svg width="100%" height="100%" viewBox="0 0 64 64" version="1.1" xmlns="http://www.w3.org/2000/svg" xmlns:xlink="http://www.w3.org/1999/xlink" xml:space="preserve" xmlns:serif="http://www.serif.com/" style="fill-rule:evenodd;clip-rule:evenodd;stroke-linejoin:round;stroke-miterlimit:1.41421;">
    <g transform="matrix(1,0,0,1,-1675.5,-2246.1)">
        <g transform="matrix(0.644329,0,0,0.644329,1415.38,-127.086)">
            <circle cx="453.363" cy="3732.85" r="49.664" style="fill:rgb(41,187,239);"/>
        </g>
        <g transform="matrix(1,0,0,1,-85.4705,12.0412)">
            <path d="M1804.11,2266.06C1802.64,2263.78 1800.8,2262.07 1798.59,2260.94C1799.18,2261.94 1799.47,2263.03 1799.47,2264.2C1799.47,2265.99 1798.84,2267.52 1797.56,2268.79C1796.29,2270.07 1794.76,2270.7 1792.97,2270.7C1791.18,2270.7 1789.65,2270.07 1788.38,2268.79C1787.11,2267.52 1786.47,2265.99 1786.47,2264.2C1786.47,2263.03 1786.77,2261.94 1787.36,2260.94C1785.14,2262.07 1783.3,2263.78 1781.83,2266.06C1783.11,2268.04 1784.73,2269.62 1786.67,2270.8C1788.61,2271.97 1790.71,2272.56 1792.97,2272.56C1795.23,2272.56 1797.34,2271.97 1799.28,2270.8C1801.21,2269.62 1802.83,2268.04 1804.11,2266.06ZM1793.67,2260.49C1793.67,2260.29 1793.6,2260.13 1793.46,2259.99C1793.33,2259.86 1793.16,2259.79 1792.97,2259.79C1791.76,2259.79 1790.72,2260.22 1789.86,2261.09C1788.99,2261.96 1788.56,2262.99 1788.56,2264.2C1788.56,2264.39 1788.63,2264.56 1788.76,2264.7C1788.9,2264.83 1789.06,2264.9 1789.26,2264.9C1789.45,2264.9 1789.61,2264.83 1789.75,2264.7C1789.88,2264.56 1789.95,2264.39 1789.95,2264.2C1789.95,2263.37 1790.25,2262.66 1790.84,2262.07C1791.43,2261.48 1792.14,2261.18 1792.97,2261.18C1793.16,2261.18 1793.33,2261.12 1793.46,2260.98C1793.6,2260.85 1793.67,2260.68 1793.67,2260.49ZM1805.97,2266.06C1805.97,2266.39 1805.87,2266.72 1805.68,2267.06C1804.33,2269.28 1802.51,2271.07 1800.22,2272.41C1797.93,2273.75 1795.51,2274.42 1792.97,2274.42C1790.43,2274.42 1788.01,2273.74 1785.72,2272.4C1783.44,2271.05 1781.62,2269.28 1780.26,2267.06C1780.07,2266.72 1779.97,2266.39 1779.97,2266.06C1779.97,2265.73 1780.07,2265.4 1780.26,2265.06C1781.62,2262.84 1783.44,2261.06 1785.72,2259.72C1788.01,2258.37 1790.43,2257.7 1792.97,2257.7C1795.51,2257.7 1797.93,2258.37 1800.22,2259.72C1802.51,2261.06 1804.33,2262.84 1805.68,2265.06C1805.87,2265.4 1805.97,2265.73 1805.97,2266.06Z" style="fill:white;fill-rule:nonzero;"/>
        </g>
    </g>
</svg>
