<?xml version="1.0" encoding="UTF-8" standalone="no"?>
<!DOCTYPE svg PUBLIC "-//W3C//DTD SVG 1.1//EN" "http://www.w3.org/Graphics/SVG/1.1/DTD/svg11.dtd">
<svg width="100%" height="100%" viewBox="0 0 64 64" version="1.1" xmlns="http://www.w3.org/2000/svg" xmlns:xlink="http://www.w3.org/1999/xlink" xml:space="preserve" xmlns:serif="http://www.serif.com/" style="fillRule:evenodd;clip-rule:evenodd;stroke-linejoin:round;stroke-miterlimit:1.41421;">
    <g transform="matrix(1,0,0,1,-1151,-2151)">
        <g transform="matrix(0.644329,0,0,0.644329,890.88,-222.187)">
            <circle cx="453.363" cy="3732.85" r="49.664" style="fill:rgb(179,109,231);"/>
        </g>
        <g transform="matrix(1,0,0,1,906.407,884.032)">
            <path d="M276.785,1308.79C276.785,1308.66 276.719,1308.59 276.588,1308.59C276.106,1308.59 275.69,1308.42 275.342,1308.07C274.995,1307.72 274.821,1307.31 274.821,1306.83C274.821,1306.69 274.755,1306.63 274.624,1306.63C274.493,1306.63 274.428,1306.69 274.428,1306.83C274.428,1307.42 274.639,1307.93 275.06,1308.35C275.482,1308.78 275.991,1308.99 276.588,1308.99C276.719,1308.99 276.785,1308.92 276.785,1308.79ZM286.803,1305.25C286.803,1305.68 286.647,1306.05 286.336,1306.36C286.025,1306.67 285.657,1306.83 285.231,1306.83L279.731,1306.83C279.731,1307.69 279.424,1308.43 278.811,1309.05C278.197,1309.66 277.456,1309.97 276.588,1309.97C275.721,1309.97 274.98,1309.66 274.366,1309.05C273.753,1308.43 273.446,1307.69 273.446,1306.83L267.946,1306.83C267.52,1306.83 267.152,1306.67 266.841,1306.36C266.53,1306.05 266.374,1305.68 266.374,1305.25C266.783,1304.91 267.156,1304.55 267.491,1304.17C267.827,1303.8 268.175,1303.31 268.535,1302.71C268.895,1302.11 269.2,1301.46 269.45,1300.76C269.699,1300.07 269.904,1299.22 270.063,1298.23C270.223,1297.24 270.303,1296.18 270.303,1295.04C270.303,1293.8 270.782,1292.64 271.739,1291.57C272.697,1290.5 273.953,1289.86 275.508,1289.63C275.443,1289.47 275.41,1289.31 275.41,1289.15C275.41,1288.82 275.524,1288.54 275.754,1288.31C275.983,1288.08 276.261,1287.97 276.588,1287.97C276.916,1287.97 277.194,1288.08 277.423,1288.31C277.652,1288.54 277.767,1288.82 277.767,1289.15C277.767,1289.31 277.734,1289.47 277.669,1289.63C279.224,1289.86 280.48,1290.5 281.438,1291.57C282.395,1292.64 282.874,1293.8 282.874,1295.04C282.874,1296.18 282.954,1297.24 283.114,1298.23C283.273,1299.22 283.478,1300.07 283.727,1300.76C283.977,1301.46 284.282,1302.11 284.642,1302.71C285.002,1303.31 285.35,1303.8 285.686,1304.17C286.021,1304.55 286.394,1304.91 286.803,1305.25Z" style="fill:white;fillRule:nonzero;"/>
        </g>
    </g>
</svg>
