<?xml version="1.0" encoding="UTF-8" standalone="no"?>
<!DOCTYPE svg PUBLIC "-//W3C//DTD SVG 1.1//EN" "http://www.w3.org/Graphics/SVG/1.1/DTD/svg11.dtd">
<svg width="100%" height="100%" viewBox="0 0 64 64" version="1.1" xmlns="http://www.w3.org/2000/svg" xmlns:xlink="http://www.w3.org/1999/xlink" xml:space="preserve" xmlns:serif="http://www.serif.com/" style="fill-rule:evenodd;clip-rule:evenodd;stroke-linejoin:round;stroke-miterlimit:1.41421;">
    <g transform="matrix(1,0,0,1,-1325,-2151)">
        <g transform="matrix(0.644329,0,0,0.644329,1064.88,-222.187)">
            <circle cx="453.363" cy="3732.85" r="49.664" style="fill:rgb(196,52,198);"/>
        </g>
        <g transform="matrix(1,0,0,1,4.69737,-2.0486)">
            <path d="M1359.32,2174.92C1359.53,2174.92 1359.72,2174.96 1359.91,2175.04C1360.2,2175.15 1360.44,2175.34 1360.61,2175.59C1360.79,2175.84 1360.87,2176.11 1360.87,2176.42L1360.87,2193.68C1360.87,2193.98 1360.79,2194.26 1360.61,2194.51C1360.44,2194.76 1360.2,2194.94 1359.91,2195.06C1359.74,2195.13 1359.54,2195.17 1359.32,2195.17C1358.89,2195.17 1358.52,2195.02 1358.21,2194.74L1352.3,2189.06L1346.4,2194.74C1346.08,2195.03 1345.7,2195.18 1345.29,2195.18C1345.08,2195.18 1344.88,2195.14 1344.69,2195.06C1344.4,2194.94 1344.17,2194.76 1343.99,2194.51C1343.82,2194.26 1343.73,2193.98 1343.73,2193.68L1343.73,2176.42C1343.73,2176.11 1343.82,2175.84 1343.99,2175.59C1344.17,2175.34 1344.4,2175.15 1344.69,2175.04C1344.88,2174.96 1345.08,2174.92 1345.29,2174.92L1359.32,2174.92Z" style="fill:white;fill-rule:nonzero;"/>
        </g>
    </g>
</svg>
