<?xml version="1.0" encoding="UTF-8" standalone="no"?>
<!DOCTYPE svg PUBLIC "-//W3C//DTD SVG 1.1//EN" "http://www.w3.org/Graphics/SVG/1.1/DTD/svg11.dtd">
<svg width="100%" height="100%" viewBox="0 0 64 64" version="1.1" xmlns="http://www.w3.org/2000/svg" xmlns:xlink="http://www.w3.org/1999/xlink" xml:space="preserve" xmlns:serif="http://www.serif.com/" style="fillRule:evenodd;clip-rule:evenodd;stroke-linejoin:round;stroke-miterlimit:1.41421;">
    <g transform="matrix(1,0,0,1,-1410,-2061)">
        <g transform="matrix(0.644329,0,0,0.644329,1149.88,-312.187)">
            <circle cx="453.363" cy="3732.85" r="49.664" style="fill:rgb(231,200,9);"/>
        </g>
        <g transform="matrix(0.997151,0,0,1,11.9392,1.94765)">
            <path d="M1423.54,2102.62L1427.88,2102.62L1427.88,2098.28L1423.54,2098.28L1423.54,2102.62ZM1428.84,2102.62L1433.66,2102.62L1433.66,2098.28L1428.84,2098.28L1428.84,2102.62ZM1423.54,2097.32L1427.88,2097.32L1427.88,2092.5L1423.54,2092.5L1423.54,2097.32ZM1428.84,2097.32L1433.66,2097.32L1433.66,2092.5L1428.84,2092.5L1428.84,2097.32ZM1423.54,2091.53L1427.88,2091.53L1427.88,2087.2L1423.54,2087.2L1423.54,2091.53ZM1434.63,2102.62L1439.45,2102.62L1439.45,2098.28L1434.63,2098.28L1434.63,2102.62ZM1428.84,2091.53L1433.66,2091.53L1433.66,2087.2L1428.84,2087.2L1428.84,2091.53ZM1440.41,2102.62L1444.75,2102.62L1444.75,2098.28L1440.41,2098.28L1440.41,2102.62ZM1434.63,2097.32L1439.45,2097.32L1439.45,2092.5L1434.63,2092.5L1434.63,2097.32ZM1429.33,2084.3L1429.33,2079.96C1429.33,2079.83 1429.28,2079.72 1429.18,2079.62C1429.09,2079.53 1428.97,2079.48 1428.84,2079.48L1427.88,2079.48C1427.75,2079.48 1427.63,2079.53 1427.54,2079.62C1427.44,2079.72 1427.4,2079.83 1427.4,2079.96L1427.4,2084.3C1427.4,2084.43 1427.44,2084.55 1427.54,2084.64C1427.63,2084.74 1427.75,2084.78 1427.88,2084.78L1428.84,2084.78C1428.97,2084.78 1429.09,2084.74 1429.18,2084.64C1429.28,2084.55 1429.33,2084.43 1429.33,2084.3ZM1440.41,2097.32L1444.75,2097.32L1444.75,2092.5L1440.41,2092.5L1440.41,2097.32ZM1434.63,2091.53L1439.45,2091.53L1439.45,2087.2L1434.63,2087.2L1434.63,2091.53ZM1440.41,2091.53L1444.75,2091.53L1444.75,2087.2L1440.41,2087.2L1440.41,2091.53ZM1440.9,2084.3L1440.9,2079.96C1440.9,2079.83 1440.85,2079.72 1440.75,2079.62C1440.66,2079.53 1440.55,2079.48 1440.41,2079.48L1439.45,2079.48C1439.32,2079.48 1439.21,2079.53 1439.11,2079.62C1439.02,2079.72 1438.97,2079.83 1438.97,2079.96L1438.97,2084.3C1438.97,2084.43 1439.02,2084.55 1439.11,2084.64C1439.21,2084.74 1439.32,2084.78 1439.45,2084.78L1440.41,2084.78C1440.55,2084.78 1440.66,2084.74 1440.75,2084.64C1440.85,2084.55 1440.9,2084.43 1440.9,2084.3ZM1446.68,2083.34L1446.68,2102.62C1446.68,2103.15 1446.49,2103.6 1446.11,2103.98C1445.73,2104.36 1445.28,2104.55 1444.75,2104.55L1423.54,2104.55C1423.02,2104.55 1422.57,2104.36 1422.18,2103.98C1421.8,2103.6 1421.61,2103.15 1421.61,2102.62L1421.61,2083.34C1421.61,2082.82 1421.8,2082.36 1422.18,2081.98C1422.57,2081.6 1423.02,2081.41 1423.54,2081.41L1425.47,2081.41L1425.47,2079.96C1425.47,2079.3 1425.7,2078.73 1426.18,2078.26C1426.65,2077.79 1427.22,2077.55 1427.88,2077.55L1428.84,2077.55C1429.51,2077.55 1430.07,2077.79 1430.55,2078.26C1431.02,2078.73 1431.25,2079.3 1431.25,2079.96L1431.25,2081.41L1437.04,2081.41L1437.04,2079.96C1437.04,2079.3 1437.28,2078.73 1437.75,2078.26C1438.22,2077.79 1438.79,2077.55 1439.45,2077.55L1440.41,2077.55C1441.08,2077.55 1441.64,2077.79 1442.12,2078.26C1442.59,2078.73 1442.83,2079.3 1442.83,2079.96L1442.83,2081.41L1444.75,2081.41C1445.28,2081.41 1445.73,2081.6 1446.11,2081.98C1446.49,2082.36 1446.68,2082.82 1446.68,2083.34Z" style="fill:white;fillRule:nonzero;"/>
        </g>
    </g>
</svg>
