<?xml version="1.0" encoding="UTF-8" standalone="no"?>
<!DOCTYPE svg PUBLIC "-//W3C//DTD SVG 1.1//EN" "http://www.w3.org/Graphics/SVG/1.1/DTD/svg11.dtd">
<svg width="100%" height="100%" viewBox="0 0 64 64" version="1.1" xmlns="http://www.w3.org/2000/svg" xmlns:xlink="http://www.w3.org/1999/xlink" xml:space="preserve" xmlns:serif="http://www.serif.com/" style="fill-rule:evenodd;clip-rule:evenodd;stroke-linejoin:round;stroke-miterlimit:1.41421;">
    <g transform="matrix(1,0,0,1,-1241.35,-2061)">
        <g transform="matrix(0.644329,0,0,0.644329,981.237,-312.187)">
            <circle cx="453.363" cy="3732.85" r="49.664" style="fill:rgb(187,114,0);"/>
        </g>
        <g transform="matrix(0.055609,0,0,0.055609,1259.98,2081.31)">
            <path d="M488.187,293.251C488.187,303.149 480.135,311.202 470.238,311.202L193.062,311.202C189.981,311.202 187.183,312.382 185.07,314.301C185.051,314.318 185.03,314.34 185.011,314.356C184.865,314.49 184.718,314.619 184.58,314.76L89.99,409.349L89.99,323.109C89.99,322.694 89.968,322.327 89.927,322.004C89.368,315.947 84.279,311.202 78.076,311.202L41.762,311.202C31.864,311.202 23.812,303.149 23.812,293.251L23.812,42.722C23.812,32.824 31.864,24.772 41.762,24.772L470.237,24.772C480.136,24.772 488.187,32.824 488.187,42.722L488.187,293.251ZM470.238,0.959L41.762,0.959C18.734,0.959 0,19.694 0,42.722L0,293.251C0,316.28 18.734,335.015 41.762,335.015L66.177,335.015L66.177,438.093C66.177,442.91 69.079,447.251 73.527,449.094C75,449.703 76.546,450 78.08,450C81.179,450 84.225,448.79 86.502,446.512L198,335.015L470.236,335.015C493.264,335.015 511.999,316.28 511.999,293.251L511.999,42.722C512,19.694 493.265,0.959 470.238,0.959Z" style="fill:white;fill-rule:nonzero;"/>
        </g>
        <g transform="matrix(0.055609,0,0,0.055609,1259.98,2081.31)">
            <path d="M104.587,111.729L173.987,111.729C180.562,111.729 185.893,106.397 185.893,99.823C185.893,93.249 180.562,87.917 173.987,87.917L104.587,87.917C98.011,87.917 92.68,93.249 92.68,99.823C92.68,106.397 98.011,111.729 104.587,111.729Z" style="fill:white;fill-rule:nonzero;"/>
        </g>
        <g transform="matrix(0.055609,0,0,0.055609,1259.98,2081.31)">
            <path d="M104.587,179.893L297.738,179.893C304.313,179.893 309.644,174.562 309.644,167.986C309.644,161.412 304.313,156.08 297.738,156.08L104.587,156.08C98.011,156.08 92.68,161.412 92.68,167.986C92.68,174.561 98.011,179.893 104.587,179.893Z" style="fill:white;fill-rule:nonzero;"/>
        </g>
        <g transform="matrix(0.055609,0,0,0.055609,1259.98,2081.31)">
            <path d="M407.414,87.917L243.507,87.917C236.931,87.917 231.601,93.249 231.601,99.823C231.601,106.397 236.931,111.729 243.507,111.729L407.414,111.729C413.989,111.729 419.32,106.397 419.32,99.823C419.32,93.247 413.989,87.917 407.414,87.917Z" style="fill:white;fill-rule:nonzero;"/>
        </g>
        <g transform="matrix(0.055609,0,0,0.055609,1259.98,2081.31)">
            <path d="M407.414,156.08L364.312,156.08C357.737,156.08 352.406,161.412 352.406,167.986C352.406,174.562 357.737,179.893 364.312,179.893L407.414,179.893C413.989,179.893 419.32,174.562 419.32,167.986C419.32,161.41 413.989,156.08 407.414,156.08Z" style="fill:white;fill-rule:nonzero;"/>
        </g>
        <g transform="matrix(0.055609,0,0,0.055609,1259.98,2081.31)">
            <path d="M212.407,224.245L104.587,224.245C98.011,224.245 92.68,229.575 92.68,236.151C92.68,242.726 98.011,248.057 104.587,248.057L212.407,248.057C218.983,248.057 224.313,242.726 224.313,236.151C224.313,229.575 218.983,224.245 212.407,224.245Z" style="fill:white;fill-rule:nonzero;"/>
        </g>
        <g transform="matrix(0.055609,0,0,0.055609,1259.98,2081.31)">
            <path d="M407.414,224.245L275.675,224.245C269.1,224.245 263.768,229.575 263.768,236.151C263.768,242.726 269.1,248.057 275.675,248.057L407.414,248.057C413.989,248.057 419.32,242.726 419.32,236.151C419.32,229.575 413.989,224.245 407.414,224.245Z" style="fill:white;fill-rule:nonzero;"/>
        </g>
    </g>
</svg>
