<?xml version="1.0" encoding="UTF-8" standalone="no"?>
<!DOCTYPE svg PUBLIC "-//W3C//DTD SVG 1.1//EN" "http://www.w3.org/Graphics/SVG/1.1/DTD/svg11.dtd">
<svg width="100%" height="100%" viewBox="0 0 64 64" version="1.1" xmlns="http://www.w3.org/2000/svg" xmlns:xlink="http://www.w3.org/1999/xlink" xml:space="preserve" xmlns:serif="http://www.serif.com/" style="fillRule:evenodd;clip-rule:evenodd;stroke-linejoin:round;stroke-miterlimit:1.41421;">
    <g transform="matrix(1,0,0,1,-1502,-2061)">
        <g transform="matrix(0.644329,0,0,0.644329,1241.88,-312.187)">
            <circle cx="453.363" cy="3732.85" r="49.664" style="fill:rgb(62,204,180);"/>
        </g>
        <g transform="matrix(1,0,0,1,6.68772,8.34544)">
            <path d="M1537.86,2078.33C1538,2078.47 1538.14,2078.65 1538.28,2078.87L1531.17,2078.87L1531.17,2071.76C1531.39,2071.9 1531.57,2072.04 1531.71,2072.18L1537.86,2078.33ZM1530.69,2080.8L1538.88,2080.8L1538.88,2096.71C1538.88,2097.11 1538.74,2097.45 1538.46,2097.73C1538.18,2098.01 1537.84,2098.16 1537.44,2098.16L1517.19,2098.16C1516.79,2098.16 1516.44,2098.01 1516.16,2097.73C1515.88,2097.45 1515.74,2097.11 1515.74,2096.71L1515.74,2072.6C1515.74,2072.2 1515.88,2071.86 1516.16,2071.58C1516.44,2071.3 1516.79,2071.16 1517.19,2071.16L1529.24,2071.16L1529.24,2079.35C1529.24,2079.75 1529.38,2080.09 1529.66,2080.38C1529.94,2080.66 1530.29,2080.8 1530.69,2080.8ZM1533.1,2091.89L1533.1,2090.92C1533.1,2090.78 1533.05,2090.67 1532.96,2090.58C1532.87,2090.49 1532.76,2090.44 1532.62,2090.44L1522.01,2090.44C1521.87,2090.44 1521.75,2090.49 1521.66,2090.58C1521.57,2090.67 1521.53,2090.78 1521.53,2090.92L1521.53,2091.89C1521.53,2092.03 1521.57,2092.14 1521.66,2092.23C1521.75,2092.32 1521.87,2092.37 1522.01,2092.37L1532.62,2092.37C1532.76,2092.37 1532.87,2092.32 1532.96,2092.23C1533.05,2092.14 1533.1,2092.03 1533.1,2091.89ZM1533.1,2088.03L1533.1,2087.07C1533.1,2086.93 1533.05,2086.81 1532.96,2086.72C1532.87,2086.63 1532.76,2086.58 1532.62,2086.58L1522.01,2086.58C1521.87,2086.58 1521.75,2086.63 1521.66,2086.72C1521.57,2086.81 1521.53,2086.93 1521.53,2087.07L1521.53,2088.03C1521.53,2088.17 1521.57,2088.29 1521.66,2088.38C1521.75,2088.47 1521.87,2088.51 1522.01,2088.51L1532.62,2088.51C1532.76,2088.51 1532.87,2088.47 1532.96,2088.38C1533.05,2088.29 1533.1,2088.17 1533.1,2088.03ZM1533.1,2084.17L1533.1,2083.21C1533.1,2083.07 1533.05,2082.95 1532.96,2082.86C1532.87,2082.77 1532.76,2082.73 1532.62,2082.73L1522.01,2082.73C1521.87,2082.73 1521.75,2082.77 1521.66,2082.86C1521.57,2082.95 1521.53,2083.07 1521.53,2083.21L1521.53,2084.17C1521.53,2084.31 1521.57,2084.43 1521.66,2084.52C1521.75,2084.61 1521.87,2084.66 1522.01,2084.66L1532.62,2084.66C1532.76,2084.66 1532.87,2084.61 1532.96,2084.52C1533.05,2084.43 1533.1,2084.31 1533.1,2084.17Z" style="fill:white;fillRule:nonzero;"/>
        </g>
    </g>
</svg>
