<?xml version="1.0" standalone="no"?>
<!DOCTYPE svg PUBLIC "-//W3C//DTD SVG 20010904//EN"
 "http://www.w3.org/TR/2001/REC-SVG-20010904/DTD/svg10.dtd">
<svg version="1.0" xmlns="http://www.w3.org/2000/svg"
 width="860.000000pt" height="900.000000pt" viewBox="0 0 860.000000 900.000000"
 preserveAspectRatio="xMidYMid meet">

<g transform="translate(0.000000,900.000000) scale(0.100000,-0.100000)"
fill="#000000" stroke="none">
<path d="M4045 8595 c-5 -1 -68 -8 -140 -15 -290 -26 -589 -89 -885 -187 -262
-88 -625 -258 -830 -391 -312 -202 -501 -352 -721 -571 -219 -220 -369 -409
-571 -721 -68 -105 -201 -359 -269 -515 -107 -244 -203 -550 -253 -810 -52
-269 -67 -421 -73 -713 -7 -352 25 -666 104 -997 29 -125 96 -352 122 -417 5
-12 31 -77 57 -143 314 -801 898 -1488 1649 -1942 311 -187 696 -350 1030
-436 33 -9 78 -20 100 -26 263 -67 603 -106 930 -106 319 0 570 26 880 91 171
36 478 130 603 184 38 17 65 28 127 54 77 31 366 178 404 205 16 12 32 21 35
21 4 0 19 8 34 19 15 10 79 53 142 95 254 168 365 260 605 501 241 240 333
351 501 605 42 63 85 127 95 142 11 15 19 30 19 34 0 3 9 19 21 35 27 38 174
327 205 404 40 96 41 99 52 125 54 120 150 433 186 605 69 332 96 580 96 875
0 161 -21 464 -40 573 -43 254 -51 293 -87 432 -27 108 -89 295 -143 440 -131
345 -339 713 -575 1016 -432 556 -1023 999 -1670 1253 -66 26 -131 52 -143 57
-64 25 -294 93 -417 122 -303 72 -616 107 -943 106 -125 0 -231 -2 -237 -4z
m2468 -1237 c15 -18 17 -44 17 -213 l0 -193 38 -19 c48 -23 88 -95 78 -139 -5
-21 -104 -126 -347 -368 l-340 -339 29 -31 c117 -124 278 -383 365 -586 319
-750 196 -1624 -319 -2267 -528 -658 -1407 -965 -2229 -777 -645 148 -1197
577 -1492 1159 -169 335 -243 643 -243 1016 0 263 31 459 109 698 222 674 749
1200 1424 1422 141 47 250 71 415 94 166 24 494 17 663 -14 374 -67 747 -238
1027 -470 83 -69 79 -68 123 -25 l39 38 0 209 c0 122 5 227 11 255 11 43 35
70 268 305 141 143 265 263 276 268 28 12 67 2 88 -23z"/>
<path d="M4185 6374 c-225 -23 -369 -56 -535 -121 -464 -183 -820 -539 -1003
-1003 -150 -383 -163 -817 -35 -1205 199 -601 710 -1055 1333 -1184 143 -29
382 -43 519 -31 535 50 1016 338 1315 785 350 524 395 1198 117 1769 -75 154
-226 376 -256 376 -11 0 -310 -299 -310 -310 0 -5 5 -12 10 -15 20 -12 112
-157 154 -243 49 -98 85 -199 112 -317 27 -115 27 -436 0 -550 -62 -266 -179
-479 -366 -665 -186 -187 -399 -304 -665 -366 -123 -29 -456 -27 -578 4 -719
181 -1150 858 -1005 1577 69 340 276 647 568 839 368 243 825 289 1240 125 92
-37 239 -121 308 -177 l44 -35 156 157 157 157 -45 41 c-73 65 -226 163 -350
222 -230 110 -449 164 -695 170 -82 2 -168 2 -190 0z"/>
<path d="M4195 5483 c-204 -26 -374 -110 -521 -257 -127 -128 -200 -256 -242
-431 -22 -95 -22 -295 1 -389 68 -274 239 -487 488 -605 105 -51 175 -69 315
-83 257 -26 496 63 690 256 139 140 217 288 250 478 29 168 4 367 -67 518 -35
76 -88 160 -99 160 -5 0 -78 -70 -163 -155 l-155 -155 25 -67 c34 -92 35 -212
3 -298 -82 -216 -301 -339 -517 -290 -345 79 -469 501 -219 751 128 128 312
167 476 101 l58 -24 159 159 158 159 -25 19 c-36 28 -168 96 -221 114 -115 39
-272 55 -394 39z"/>
</g>
</svg>
