<svg xmlns="http://www.w3.org/2000/svg" width="58.498" height="77.997" viewBox="0 0 58.498 77.997"><defs><style>.a{fill:#fff;}</style></defs><path class="a" d="M51.185,9.75H39a9.75,9.75,0,1,0-19.5,0H7.312A7.314,7.314,0,0,0,0,17.062V70.685A7.314,7.314,0,0,0,7.312,78H51.185A7.314,7.314,0,0,0,58.5,70.685V17.062A7.314,7.314,0,0,0,51.185,9.75ZM14.624,64.591a3.656,3.656,0,1,1,3.656-3.656A3.647,3.647,0,0,1,14.624,64.591Zm0-14.624a3.656,3.656,0,1,1,3.656-3.656A3.647,3.647,0,0,1,14.624,49.967Zm0-14.624a3.656,3.656,0,1,1,3.656-3.656A3.647,3.647,0,0,1,14.624,35.342ZM29.249,6.093A3.656,3.656,0,1,1,25.593,9.75,3.647,3.647,0,0,1,29.249,6.093Zm19.5,56.06a1.222,1.222,0,0,1-1.219,1.219H25.593a1.222,1.222,0,0,1-1.219-1.219V59.716A1.222,1.222,0,0,1,25.593,58.5H47.529a1.222,1.222,0,0,1,1.219,1.219Zm0-14.624a1.222,1.222,0,0,1-1.219,1.219H25.593a1.222,1.222,0,0,1-1.219-1.219V45.092a1.222,1.222,0,0,1,1.219-1.219H47.529a1.222,1.222,0,0,1,1.219,1.219Zm0-14.624a1.222,1.222,0,0,1-1.219,1.219H25.593A1.222,1.222,0,0,1,24.374,32.9V30.467a1.222,1.222,0,0,1,1.219-1.219H47.529a1.222,1.222,0,0,1,1.219,1.219Z"/></svg>