<?xml version="1.0" encoding="UTF-8" standalone="no"?>
<!DOCTYPE svg PUBLIC "-//W3C//DTD SVG 1.1//EN" "http://www.w3.org/Graphics/SVG/1.1/DTD/svg11.dtd">
<svg width="100%" height="100%" viewBox="0 0 66 66" version="1.1" xmlns="http://www.w3.org/2000/svg" xmlns:xlink="http://www.w3.org/1999/xlink" xml:space="preserve" xmlns:serif="http://www.serif.com/" style="fillRule:evenodd;clip-rule:evenodd;stroke-linejoin:round;stroke-miterlimit:2;">
    <g transform="matrix(1,0,0,1,-432,-357)">
        <g transform="matrix(0.703414,0,0,0.703414,128.499,106.148)">
            <circle cx="478.383" cy="403.535" r="46.914" style="fill:rgb(249,82,85);"/>
        </g>
        <g transform="matrix(30,0,0,30,451.794,401.316)">
            <path d="M0.648,-0.574L0.618,-0.318C0.616,-0.308 0.615,-0.299 0.615,-0.291C0.615,-0.282 0.614,-0.274 0.614,-0.267C0.614,-0.242 0.624,-0.23 0.645,-0.23C0.673,-0.23 0.699,-0.25 0.722,-0.29C0.744,-0.329 0.756,-0.374 0.756,-0.425C0.756,-0.505 0.728,-0.57 0.672,-0.622C0.616,-0.673 0.545,-0.699 0.458,-0.699C0.368,-0.699 0.292,-0.668 0.23,-0.606C0.168,-0.545 0.138,-0.469 0.138,-0.378C0.138,-0.328 0.149,-0.279 0.171,-0.23C0.193,-0.185 0.225,-0.148 0.265,-0.119C0.319,-0.08 0.387,-0.06 0.468,-0.06C0.544,-0.06 0.624,-0.079 0.708,-0.118L0.715,-0.122L0.74,-0.052L0.734,-0.049C0.649,-0.008 0.561,0.013 0.469,0.013C0.367,0.013 0.282,-0.012 0.213,-0.061C0.162,-0.097 0.123,-0.143 0.095,-0.198C0.067,-0.257 0.053,-0.316 0.053,-0.377C0.053,-0.487 0.092,-0.58 0.169,-0.655C0.247,-0.73 0.343,-0.767 0.458,-0.767C0.563,-0.767 0.651,-0.735 0.722,-0.67C0.792,-0.607 0.828,-0.527 0.828,-0.431C0.828,-0.356 0.808,-0.293 0.77,-0.24C0.731,-0.186 0.686,-0.159 0.634,-0.159C0.592,-0.159 0.564,-0.179 0.549,-0.218C0.509,-0.177 0.464,-0.157 0.415,-0.157C0.361,-0.157 0.317,-0.176 0.281,-0.215C0.246,-0.253 0.228,-0.302 0.228,-0.362C0.228,-0.426 0.248,-0.479 0.287,-0.52C0.326,-0.562 0.376,-0.583 0.436,-0.583C0.49,-0.583 0.534,-0.562 0.568,-0.52L0.575,-0.574L0.648,-0.574ZM0.549,-0.386C0.549,-0.416 0.539,-0.441 0.518,-0.461C0.497,-0.482 0.471,-0.492 0.441,-0.492C0.408,-0.492 0.381,-0.479 0.36,-0.454C0.339,-0.429 0.329,-0.396 0.329,-0.357C0.329,-0.324 0.337,-0.296 0.354,-0.274C0.371,-0.252 0.393,-0.241 0.419,-0.241C0.454,-0.241 0.484,-0.256 0.51,-0.285C0.536,-0.314 0.549,-0.347 0.549,-0.386Z" style="fill:white;fillRule:nonzero;"/>
        </g>
    </g>
</svg>
