<?xml version="1.0" encoding="UTF-8" standalone="no"?>
<!DOCTYPE svg PUBLIC "-//W3C//DTD SVG 1.1//EN" "http://www.w3.org/Graphics/SVG/1.1/DTD/svg11.dtd">
<svg width="100%" height="100%" viewBox="0 0 64 64" version="1.1" xmlns="http://www.w3.org/2000/svg" xmlns:xlink="http://www.w3.org/1999/xlink" xml:space="preserve" xmlns:serif="http://www.serif.com/" style="fill-rule:evenodd;clip-rule:evenodd;stroke-linecap:round;stroke-linejoin:round;stroke-miterlimit:1;">
    <g transform="matrix(1,0,0,1,-1586.49,-2061)">
        <g transform="matrix(0.644329,0,0,0.644329,1326.37,-312.187)">
            <circle cx="453.363" cy="3732.85" r="49.664" style="fill:rgb(52,84,198);"/>
        </g>
        <g transform="matrix(0.166801,0,0,0.166801,1158.59,2000.02)">
            <g>
                <g id="notes">
                    <g transform="matrix(4.95707e-17,-0.80764,0.856453,5.23188e-17,2535.01,1721.31)">
                        <path d="M1544.99,312.36L1544.96,312.715L1544.91,313.065L1544.85,313.41L1544.77,313.749L1544.67,314.081L1544.55,314.406L1544.42,314.724L1544.27,315.034L1544.1,315.335L1543.92,315.629L1543.73,315.913L1543.52,316.187L1543.3,316.452L1543.07,316.706L1542.83,316.949L1542.57,317.181L1542.3,317.401L1542.02,317.609L1541.73,317.804L1541.42,317.986L1541.11,318.155L1540.79,318.309L1540.47,318.45L1540.13,318.575L1539.78,318.685L1539.43,318.779L1539.07,318.858L1538.71,318.919L1538.34,318.964L1537.96,318.991L1537.58,319L1359.42,319L1359.04,318.991L1358.66,318.964L1358.29,318.919L1357.93,318.858L1357.57,318.779L1357.22,318.685L1356.87,318.575L1356.54,318.45L1356.21,318.309L1355.89,318.155L1355.58,317.986L1355.27,317.804L1354.98,317.609L1354.7,317.401L1354.43,317.181L1354.17,316.949L1353.93,316.706L1353.7,316.452L1353.48,316.187L1353.27,315.913L1353.08,315.629L1352.9,315.335L1352.73,315.034L1352.58,314.724L1352.45,314.406L1352.33,314.081L1352.23,313.749L1352.15,313.41L1352.09,313.065L1352.04,312.715L1352.01,312.36L1352,312L1352,186L1352.01,185.64L1352.04,185.285L1352.09,184.935L1352.15,184.59L1352.23,184.251L1352.33,183.919L1352.45,183.594L1352.58,183.276L1352.73,182.966L1352.9,182.665L1353.08,182.371L1353.27,182.087L1353.48,181.813L1353.7,181.548L1353.93,181.294L1354.17,181.051L1354.43,180.819L1354.7,180.599L1354.98,180.391L1355.27,180.196L1355.58,180.014L1355.89,179.845L1356.21,179.691L1356.54,179.55L1356.87,179.425L1357.22,179.315L1357.57,179.221L1357.93,179.142L1358.29,179.081L1358.66,179.036L1359.04,179.009L1359.42,179L1537.58,179L1537.96,179.009L1538.34,179.036L1538.71,179.081L1539.07,179.142L1539.43,179.221L1539.78,179.315L1540.13,179.425L1540.47,179.55L1540.79,179.691L1541.11,179.845L1541.42,180.014L1541.73,180.196L1542.02,180.391L1542.3,180.599L1542.57,180.819L1542.83,181.051L1543.07,181.294L1543.3,181.548L1543.52,181.813L1543.73,182.087L1543.92,182.371L1544.1,182.665L1544.27,182.966L1544.42,183.276L1544.55,183.594L1544.67,183.919L1544.77,184.251L1544.85,184.59L1544.91,184.935L1544.96,185.285L1544.99,185.64L1545,186L1545,312L1544.99,312.36ZM1537.58,186.089L1537.58,186.003L1537.58,186.003L1537.57,186.002L1537.48,186L1359.52,186L1359.43,186.002L1359.42,186.089L1359.42,311.912L1359.43,311.997L1359.43,311.998L1359.52,312L1537.48,312L1537.57,311.998L1537.58,311.997L1537.58,311.997L1537.58,311.997L1537.58,311.912L1537.58,186.089Z" style="fill:white;"/>
                    </g>
                    <g transform="matrix(4.94856e-17,-0.80764,0.256936,1.55966e-17,2636.33,1721.31)">
                        <path d="M1545,202.333C1545,189.455 1541.67,179 1537.58,179L1359.42,179C1355.33,179 1352,189.455 1352,202.333L1352,295.667C1352,308.545 1355.33,319 1359.42,319L1537.58,319C1541.67,319 1545,308.545 1545,295.667L1545,202.333Z" style="fill:white;"/>
                        <path d="M1544.99,296.867L1544.96,298.051L1544.91,299.218L1544.85,300.367L1544.77,301.495L1544.67,302.602L1544.55,303.686L1544.42,304.745L1544.27,305.779L1544.1,306.785L1543.92,307.762L1543.73,308.709L1543.52,309.624L1543.3,310.505L1543.07,311.352L1542.83,312.163L1542.57,312.935L1542.3,313.669L1542.02,314.362L1541.73,315.013L1541.42,315.62L1541.11,316.182L1540.79,316.698L1540.47,317.165L1540.13,317.583L1539.78,317.95L1539.43,318.265L1539.07,318.526L1538.71,318.731L1538.34,318.879L1537.96,318.97L1537.58,319L1359.42,319L1359.04,318.97L1358.66,318.879L1358.29,318.731L1357.93,318.526L1357.57,318.265L1357.22,317.95L1356.87,317.583L1356.54,317.165L1356.21,316.698L1355.89,316.182L1355.58,315.62L1355.27,315.013L1354.98,314.362L1354.7,313.669L1354.43,312.935L1354.17,312.163L1353.93,311.352L1353.7,310.505L1353.48,309.624L1353.27,308.709L1353.08,307.762L1352.9,306.785L1352.73,305.779L1352.58,304.745L1352.45,303.686L1352.33,302.602L1352.23,301.495L1352.15,300.367L1352.09,299.218L1352.04,298.051L1352.01,296.867L1352,295.667L1352,202.333L1352.01,201.133L1352.04,199.949L1352.09,198.782L1352.15,197.633L1352.23,196.505L1352.33,195.398L1352.45,194.314L1352.58,193.255L1352.73,192.221L1352.9,191.215L1353.08,190.238L1353.27,189.291L1353.48,188.376L1353.7,187.495L1353.93,186.648L1354.17,185.837L1354.43,185.065L1354.7,184.331L1354.98,183.638L1355.27,182.987L1355.58,182.38L1355.89,181.818L1356.21,181.302L1356.54,180.835L1356.87,180.417L1357.22,180.05L1357.57,179.735L1357.93,179.474L1358.29,179.269L1358.66,179.121L1359.04,179.03L1359.42,179L1537.58,179L1537.96,179.03L1538.34,179.121L1538.71,179.269L1539.07,179.474L1539.43,179.735L1539.78,180.05L1540.13,180.417L1540.47,180.835L1540.79,181.302L1541.11,181.818L1541.42,182.38L1541.73,182.987L1542.02,183.638L1542.3,184.331L1542.57,185.065L1542.83,185.837L1543.07,186.648L1543.3,187.495L1543.52,188.376L1543.73,189.291L1543.92,190.238L1544.1,191.215L1544.27,192.221L1544.42,193.255L1544.55,194.314L1544.67,195.398L1544.77,196.505L1544.85,197.633L1544.91,198.782L1544.96,199.949L1544.99,201.133L1545,202.333L1545,295.667L1544.99,296.867ZM1537.58,202.629L1537.58,202.342L1537.58,202.342L1537.57,202.341L1537.48,202.334L1359.52,202.334L1359.43,202.341L1359.42,202.629L1359.42,295.372L1359.43,295.659L1359.52,295.667L1537.48,295.667L1537.57,295.659L1537.58,295.658L1537.58,295.658L1537.58,295.372L1537.58,202.629Z" style="fill:white;"/>
                    </g>
                    <g transform="matrix(1,0,0,1,12,0)">
                        <g transform="matrix(6.97394e-17,-1.10113,0.937354,5.54916e-17,2217.85,2124.49)">
                            <path d="M1385.1,476.369C1385.1,472.808 1382.64,469.917 1379.61,469.917C1376.58,469.917 1374.12,472.808 1374.12,476.369L1374.12,489.048C1374.12,492.609 1376.58,495.5 1379.61,495.5C1382.64,495.5 1385.1,492.609 1385.1,489.048L1385.1,476.369Z" style="fill:white;stroke:white;stroke-width:7px;"/>
                        </g>
                        <g transform="matrix(6.97394e-17,-1.10113,0.937354,5.54916e-17,2217.85,2090.55)">
                            <path d="M1385.1,476.369C1385.1,472.808 1382.64,469.917 1379.61,469.917C1376.58,469.917 1374.12,472.808 1374.12,476.369L1374.12,489.048C1374.12,492.609 1376.58,495.5 1379.61,495.5C1382.64,495.5 1385.1,492.609 1385.1,489.048L1385.1,476.369Z" style="fill:white;stroke:white;stroke-width:7px;"/>
                        </g>
                        <g transform="matrix(6.97394e-17,-1.10113,0.937354,5.54916e-17,2217.85,2056.62)">
                            <path d="M1385.1,476.369C1385.1,472.808 1382.64,469.917 1379.61,469.917C1376.58,469.917 1374.12,472.808 1374.12,476.369L1374.12,489.048C1374.12,492.609 1376.58,495.5 1379.61,495.5C1382.64,495.5 1385.1,492.609 1385.1,489.048L1385.1,476.369Z" style="fill:white;stroke:white;stroke-width:7px;"/>
                        </g>
                        <g transform="matrix(6.97394e-17,-1.10113,0.937354,5.54916e-17,2217.85,2022.68)">
                            <path d="M1385.1,476.369C1385.1,472.808 1382.64,469.917 1379.61,469.917C1376.58,469.917 1374.12,472.808 1374.12,476.369L1374.12,489.048C1374.12,492.609 1376.58,495.5 1379.61,495.5C1382.64,495.5 1385.1,492.609 1385.1,489.048L1385.1,476.369Z" style="fill:white;stroke:white;stroke-width:7px;"/>
                        </g>
                    </g>
                    <g transform="matrix(1,0,0,1,-0.800874,-2.12403)">
                        <g transform="matrix(1.33218,0,0,1.24823,-936.853,-118.622)">
                            <rect x="2825.49" y="486.787" width="13.501" height="97.738" style="fill:white;"/>
                            <path d="M2838.99,584.526L2825.49,584.526L2825.49,486.787L2838.99,486.787L2838.99,584.526ZM2830.86,492.511L2830.86,578.802L2833.63,578.802L2833.63,492.511L2830.86,492.511Z" style="fill:white;"/>
                        </g>
                        <g transform="matrix(-0.943103,1.15497e-16,-1.01377e-16,-0.827808,5533.44,1145.59)">
                            <path d="M2860.18,631L2869.71,645.496L2850.64,645.496L2860.18,631Z" style="fill:rgb(0,175,115);"/>
                            <path d="M2860.18,631L2869.71,645.496L2850.64,645.496L2860.18,631Z" style="fill:white;"/>
                        </g>
                    </g>
                </g>
            </g>
        </g>
    </g>
</svg>
