<?xml version="1.0" encoding="UTF-8" standalone="no"?>
<!DOCTYPE svg PUBLIC "-//W3C//DTD SVG 1.1//EN" "http://www.w3.org/Graphics/SVG/1.1/DTD/svg11.dtd">
<svg width="100%" height="100%" viewBox="0 0 64 64" version="1.1" xmlns="http://www.w3.org/2000/svg" xmlns:xlink="http://www.w3.org/1999/xlink" xml:space="preserve" xmlns:serif="http://www.serif.com/" style="fill-rule:evenodd;clip-rule:evenodd;stroke-linejoin:round;stroke-miterlimit:1.41421;">
    <g transform="matrix(1,0,0,1,-794,-2061)">
        <g transform="matrix(0.644329,0,0,0.644329,533.885,-312.187)">
            <circle cx="453.363" cy="3732.85" r="49.664" style="fill:rgb(248,72,75);"/>
        </g>
        <g transform="matrix(1,0,0,1,639.27,-31.3059)">
            <path d="M188.801,2133.63L199.159,2133.63L199.159,2131.56L188.801,2131.56L188.801,2133.63ZM182.587,2125.34L199.159,2125.34L199.159,2123.27L182.587,2123.27L182.587,2125.34ZM192.944,2117.06L199.159,2117.06L199.159,2114.98L192.944,2114.98L192.944,2117.06ZM201.23,2130.52L201.23,2134.66C201.23,2134.94 201.127,2135.19 200.922,2135.39C200.717,2135.6 200.475,2135.7 200.194,2135.7L173.266,2135.7C172.985,2135.7 172.742,2135.6 172.537,2135.39C172.332,2135.19 172.23,2134.94 172.23,2134.66L172.23,2130.52C172.23,2130.24 172.332,2130 172.537,2129.79C172.742,2129.59 172.985,2129.48 173.266,2129.48L200.194,2129.48C200.475,2129.48 200.717,2129.59 200.922,2129.79C201.127,2130 201.23,2130.24 201.23,2130.52ZM201.23,2122.23L201.23,2126.38C201.23,2126.66 201.127,2126.9 200.922,2127.11C200.717,2127.31 200.475,2127.41 200.194,2127.41L173.266,2127.41C172.985,2127.41 172.742,2127.31 172.537,2127.11C172.332,2126.9 172.23,2126.66 172.23,2126.38L172.23,2122.23C172.23,2121.95 172.332,2121.71 172.537,2121.51C172.742,2121.3 172.985,2121.2 173.266,2121.2L200.194,2121.2C200.475,2121.2 200.717,2121.3 200.922,2121.51C201.127,2121.71 201.23,2121.95 201.23,2122.23ZM201.23,2113.95L201.23,2118.09C201.23,2118.37 201.127,2118.62 200.922,2118.82C200.717,2119.03 200.475,2119.13 200.194,2119.13L173.266,2119.13C172.985,2119.13 172.742,2119.03 172.537,2118.82C172.332,2118.62 172.23,2118.37 172.23,2118.09L172.23,2113.95C172.23,2113.67 172.332,2113.43 172.537,2113.22C172.742,2113.01 172.985,2112.91 173.266,2112.91L200.194,2112.91C200.475,2112.91 200.717,2113.01 200.922,2113.22C201.127,2113.43 201.23,2113.67 201.23,2113.95Z" style="fill:white;fill-rule:nonzero;"/>
        </g>
    </g>
</svg>
